<?xml version="1.0" encoding="utf-8"?>
<svg version="1.1" id="svg-root" xmlns="http://www.w3.org/2000/svg" xmlns:xlink="http://www.w3.org/1999/xlink" x="0px" y="0px"
	viewBox="0 0 818.8 507"
	style="enable-background:new 0 0 818.8 507;" xml:space="preserve">

<defs>
<script type="text/ecmascript"><![CDATA[
/**
 * Отвечает за генерацию SVG-элементов (<g> и <circle>),
 * их добавление в DOM и удаление.
 */
class SVGMarkerManager {
    constructor(containerId) {
        this.containerId = containerId;
        this.ns = "http://www.w3.org/2000/svg";
    }

    get container() {
        return document.getElementById(this.containerId);
    }

    /**
     * Создает SVG-группу с маркерами, добавляет её в контейнер маркеров
     */
    createMarker(x, y, markerId, onAttachHandlers) {
        const markerContainer = this.container;
        if (!markerContainer) return;

        const markerGroup = document.createElementNS(this.ns, "g");
        markerGroup.setAttribute("id", markerId);
        markerGroup.setAttribute("data-id", markerId);
        markerGroup.setAttribute("data-type", "damage_marker");
        markerGroup.setAttribute("style", "cursor: pointer;");

        const circle = document.createElementNS(this.ns, "circle");
        circle.setAttribute("cx", x);
        circle.setAttribute("cy", y);
        circle.setAttribute("r", "11");
        circle.setAttribute("fill", "#FF0000");
        circle.setAttribute("stroke", "#FFFFFF");
        circle.setAttribute("stroke-width", "2.5");
        circle.setAttribute("data-type", "damage_marker");
        circle.setAttribute("data-id", markerId);

        markerGroup.appendChild(circle);
        markerContainer.appendChild(markerGroup);

        if (typeof onAttachHandlers === "function") {
            onAttachHandlers(markerGroup);
            onAttachHandlers(circle);
        }
    }

    /**
     * Удаляет маркер из DOM по ID.
     */
    removeMarker(markerId) {
        const markerElement = document.getElementById(markerId);
        if (markerElement) {
            markerElement.parentNode.removeChild(markerElement);
        }
    }

    /**
     * Полная очистка всех маркеров на схеме.
     */
    clearAll() {
        const markerContainer = this.container;
        if (markerContainer) markerContainer.innerHTML = "";
    }

    /**
     * Отрисовка массива переданных 2D маркеров.
     */
    highlightMarker(markers, onAttachHandlers) {
        this.clearAll();
        if (!markers) return;

        let parsed = typeof markers === 'string' ? JSON.parse(markers) : markers;
        if (!Array.isArray(parsed)) parsed = [parsed];

        parsed.forEach(data => {
            if (!data || data.x === undefined || data.y === undefined) return;
            const id = data.id || `marker_${Date.now()}_${Math.floor(Math.random() * 1000)}`;
            this.createMarker(parseFloat(data.x), parseFloat(data.y), id, onAttachHandlers);
        });
    }
}

/**
 * Отвечает за поиск деталей на SVG-панели и определение их родительских групп.
 */
class SVGModelManager {
    constructor(rootId) {
        this.root = document.getElementById(rootId);
    }

    /**
     * Ищет элемент детали на SVG по строковому имени.
     */
    findPart(partName) {
        if (!partName) return null;
        return this.root.querySelector(`[id^="${partName}"]`) ||
            this.root.querySelector(`[id*="${partName}"]`);
    }

    /**
     * Ищет ID детали вверх по DOM-дереву от места клика.
     */
    findPartId(targetElement) {
        let currentEl = targetElement;
        while (currentEl && currentEl !== this.root) {
            if (currentEl.id &&
                !currentEl.id.startsWith("line-") &&
                currentEl.id !== "lines" &&
                !currentEl.id.startsWith("marker_")) {
                return {id: currentEl.id, element: currentEl};
            }
            currentEl = currentEl.parentNode;
        }
        return null;
    }
}

/**
 * Принимает нормализованные координаты куба (nx, ny, nz) и проецирует их.
 */
class SVGProjector {
    /**
     * Проецирует трехмерную точку повреждения на плоскость 2D
     * @param {Object} damage - Объект повреждения из 3D
     * @param {SVGElement} svgPart - Найденный SVG элемент детали
     */
    static project3DTo2D(damage, svgPart) {
        const parentGroup = svgPart.closest("g");
        if (!parentGroup) {
            console.warn("Parent group not found for part:", damage.partName);
            return null;
        }

        const groupId = parentGroup.id.toLowerCase();
        const bbox = parentGroup.getBBox();

        let exactX = 0;
        let exactY = 0;

        if (groupId.includes("top")) {
            exactX = bbox.x + (1 - damage.nz) * bbox.width;
            exactY = bbox.y + damage.nx * bbox.height;
        } else if (groupId.includes("right")) {
            exactX = bbox.x + (1 - damage.nz) * bbox.width;
            exactY = bbox.y + damage.ny * bbox.height;
        } else if (groupId.includes("left")) {
            exactX = bbox.x + (1 - damage.nz) * bbox.width;
            exactY = bbox.y + (1 - damage.ny) * bbox.height;
        } else if (groupId.includes("front")) {
            exactX = bbox.x + damage.ny * bbox.width;
            exactY = bbox.y + damage.nx * bbox.height;

            if (/(light|grille)/i.test(damage.partName)) {
                exactX += 20;
            }

        } else if (groupId.includes("back")) {
            exactX = bbox.x + damage.ny * bbox.width;
            exactY = bbox.y + damage.nx * bbox.height;

            if (/(light|trunklid)/i.test(damage.partName)) {
                exactX -= 30;
            }

        } else {
            console.warn("Unknown SVG view group orientation:", groupId);
            return null;
        }

        return {
            id: damage.id,
            x: parseFloat(exactX.toFixed(2)),
            y: parseFloat(exactY.toFixed(2))
        };
    }
}

let modelManager, markerManager;
let pressedElement = null;
let pointerDownPos = {x: 0, y: 0};

const touchHighlightEffect = "0.3";

document.addEventListener("DOMContentLoaded", () => {
    modelManager = new SVGModelManager("svg-root");
    markerManager = new SVGMarkerManager("markers-container");

    attachTouchHandlers();
    initClickContainer();
});

/**
 * Вызывается нативной стороной для переноса точек из 3D в 2D.
 */
function load3DDamageToSVG(jsonFrom3D) {
    try {
        const damages = typeof jsonFrom3D === "string" ? JSON.parse(jsonFrom3D) : jsonFrom3D;
        const markersForSVG = [];

        damages.forEach(damage => {
            const has3DCords = damage.nx !== undefined && damage.ny !== undefined &&
                damage.nz !== undefined && (damage.nx !== 0 || damage.ny !== 0 || damage.nz !== 0);

            if (!has3DCords) {
                if (damage.x !== undefined && damage.y !== undefined) {
                    markersForSVG.push({id: damage.id,
                                        x: parseFloat(damage.x),
                                        y: parseFloat(damage.y)});
                }
                return;
            }

            const svgPart = modelManager.findPart(damage.partName);
            if (!svgPart) {
                console.warn("SVG part not found in DOM:", damage.partName);
                return;
            }

            const projectedPoint = SVGProjector.project3DTo2D(damage, svgPart);
            if (projectedPoint) {
                markersForSVG.push(projectedPoint);
            }
        });

        if (markersForSVG.length > 0) {
            highlightDamagedParts(markersForSVG);
        }

    } catch (error) {
        console.error("Projection error 3D to SVG:", error);
    }
}

/**
 * Сканирует документ и вешает события pointerdown на все интерактивные детали схемы.
 */
function attachTouchHandlers() {
    const elements = document.querySelectorAll("[id]");
    elements.forEach(el => {
        if (el.id === "svg-root" ||
            el.id === "lines" ||
            el.id === "markers-container" ||
            el.id.startsWith("line-")) return;
        attachTouchHandlersToElement(el);
    });
}

function attachTouchHandlersToElement(el) {
    if (!el) return;

    el.addEventListener("pointerdown", (e) => {
        pressedElement = e.target;
        pointerDownPos = {x: e.clientX, y: e.clientY};

        if (pressedElement.id?.startsWith("marker_") === false &&
            pressedElement.getAttribute("data-type") !== "damage_marker") {
            pressedElement.style.opacity = touchHighlightEffect;
        }
    });

    const resetOpacity = () => {
        if (pressedElement) {
            if (pressedElement.id?.startsWith("marker_") === false &&
                pressedElement.getAttribute("data-type") !== "damage_marker") {
                pressedElement.style.opacity = "1.0";
            }
            pressedElement = null;
        }
    };

    el.addEventListener("pointerleave", resetOpacity);
    el.addEventListener("pointercancel", resetOpacity);
}

/**
 * Инициализация глобального контейнера кликов.
 */
function initClickContainer() {
    const svgRoot = modelManager.root;

    svgRoot.addEventListener("pointerup", (e) => {
        if (!pressedElement) return;

        const moveDistance = Math.hypot(e.clientX - pointerDownPos.x, e.clientY - pointerDownPos.y);
        if (moveDistance > 8) {
            pressedElement = null;
            return;
        }

        const clickedTarget = e.target;

        if (clickedTarget.getAttribute("data-type") === "damage_marker" ||
            clickedTarget.id?.startsWith("marker_") ||
            clickedTarget.parentNode?.getAttribute("data-type") === "damage_marker") {

            const markerGroup = clickedTarget.closest("g[data-type='damage_marker']") ||
                (clickedTarget.id?.startsWith("marker_") ? clickedTarget : null);

            if (markerGroup) {
                const markerId = markerGroup.id || markerGroup.getAttribute("data-id");
                if (markerId) {
                    markerManager.removeMarker(markerId);

                    if (typeof elementClicked !== "undefined" && elementClicked.postMessage) {
                        elementClicked.postMessage(JSON.stringify({action: "marker_removed",
                                                                   id: markerId}));
                    }
                }
            }
            pressedElement = null;
            e.stopPropagation();
            return;
        }

        if (pressedElement && pressedElement.id?.startsWith("marker_") === false
            && pressedElement.getAttribute("data-type") !== "damage_marker") {
            pressedElement.style.opacity = "1.0";
        }

        const part = modelManager.findPartId(clickedTarget);
        if (!part || part.id === "svg-root") {
            pressedElement = null;
            return;
        }

        const cleanPartName = part.id.split("-")[0];

        const point = svgRoot.createSVGPoint();
        point.x = e.clientX;
        point.y = e.clientY;
        const svgP = point.matrixTransform(svgRoot.getScreenCTM().inverse());

        const parentGroup = part.element.closest("g");
        let viewType = "unknown";
        let nx_2d = 0, ny_2d = 0;

        if (parentGroup?.id) {
            const groupId = parentGroup.id.toLowerCase();
            const bbox = parentGroup.getBBox();

            nx_2d = (svgP.x - bbox.x) / bbox.width;
            ny_2d = (svgP.y - bbox.y) / bbox.height;

            if (groupId.includes("top")) viewType = "top";
            else if (groupId.includes("right")) viewType = "right";
            else if (groupId.includes("left")) viewType = "left";
            else if (groupId.includes("front")) viewType = "front";
            else if (groupId.includes("back")) viewType = "back";
        }

        const newMarkerId = `marker_${Date.now()}_${Math.floor(Math.random() * 1000)}`;

        const eventData = {
            action: "marker_added",
            id: newMarkerId,
            partName: cleanPartName,
            x: parseFloat(svgP.x.toFixed(2)),
            y: parseFloat(svgP.y.toFixed(2)),
            z: 0.0,
            nx_2d: nx_2d,
            ny_2d: ny_2d,
            viewType: viewType
        };

        if (typeof elementClicked !== "undefined" && elementClicked.postMessage) {
            elementClicked.postMessage(JSON.stringify(eventData));
        }

        markerManager.createMarker(svgP.x, svgP.y, newMarkerId, attachTouchHandlersToElement);
        pressedElement = null;
    });
}

function highlightDamagedParts(markers) {
    markerManager.highlightMarker(markers, attachTouchHandlersToElement);
}

window.load3DDamageToSVG = load3DDamageToSVG;
window.highlightDamagedParts = highlightDamagedParts;
window.clearAllMarkers = () => markerManager.clearAll();
window.removeMarkerById = (id) => markerManager.removeMarker(id);
]]></script>
</defs>
<style type="text/css">
	.st0{fill:#FFFFFF;stroke:#000000;stroke-miterlimit:10;}
	.st1{fill:#A3A3A3;stroke:#000000;stroke-miterlimit:10;}
	.st2{fill:#E5E5E5;stroke:#000000;stroke-miterlimit:10;}
	.st3{fill:#3A3939;stroke:#000000;stroke-miterlimit:10;}
	.st4{fill:#A3A3A3;}
	.st5{fill:#262626;}
	.st6{fill:#B7B7B7;}
	.st7{fill:#4C4C4C;stroke:#000000;stroke-miterlimit:10;}
	.st8{fill:none;stroke:#000000;stroke-miterlimit:10;}
</style>
<g id="VanTop">
	<path id="Hood" class="st0" d="M208.8,173.1c-18.5-1.8-37.4,4.9-56.5,16.9c-8.9,41.8-8.1,84,0,126.6c20.7,11.6,39.4,17.2,56.4,16.4
		c0.1,0,0.1-0.1,0-0.2c-3.4-1-17.3-9.6-17.3-79.8C191.4,182,205.6,174.1,208.8,173.1C208.9,173.3,208.9,173.1,208.8,173.1z"/>
	<path id="Roof" class="st0" d="M579.5,322.5H289.9c-3.2-46.3-3.1-92.7,0-139.1h289.6c2.4,0,4.4,1.9,4.4,4.4v130.4
		C583.8,320.6,581.9,322.5,579.5,322.5z"/>
	<path id="Windshield" class="st1" d="M208.7,333c7.5,3.1,43.7-3.5,81.2-10.6c-3.2-46.3-3.1-92.7,0-139.1
		c-36.2-6.1-75.7-13.3-81.1-10.3c0,0-17.4,2.7-17.4,80S208.7,333,208.7,333z"/>
</g>
<g id="VanBack">
	<path id="LeftTrunkDoor" class="st0" d="M584,244.6v63.3c0,5.5,3.6,10.5,8.9,12.2l51.3,16c2.7,0.9,5.5,1.2,8.5,1.2h54.3v-92.8H584z
		"/>
	<path id="RightTrunkDoor" class="st0" d="M584,244.6v-47.5c0-5.5,3.6-10.5,8.9-12.2l49.5-15.5c3.8-1.2,7.9-1.8,12-1.8H707v76.9H584
		z"/>
	<path id="LeftTailLight_00000101067322384053953390000018121025433834594735_" class="st1" d="M646.4,336.6v-2.8
		c0-6.2,5.1-11.3,11.3-11.3h27.3c0.9,0,1.7,0.8,1.7,1.7v13.1h-33.3L646.4,336.6z"/>
	<path id="RightTailLight" class="st1" d="M646.3,168.2v2.8c0,6.2,5.1,11.3,11.3,11.3h27.3c0.9,0,1.7-0.8,1.7-1.7v-13.1h-33.3
		L646.3,168.2z"/>
	<path id="RearBumper_00000021812368824361473830000011660043130181188994_" class="st2" d="M706.9,167.6l25,1.8
		c3.5,0.3,6.2,3.3,6.2,6.8v153.8c0,3.5-2.6,6.4-6.1,6.8l-25,0.6L706.9,167.6z"/>
	<path id="RightRearFogLight" class="st1" d="M730,197.3L730,197.3c-1.1,0-2-0.9-2-2v-9c0-1.1,0.9-2,2-2l0,0c1.1,0,2,0.9,2,2v9
		C732.1,196.4,731.2,197.3,730,197.3z"/>
	<path id="LeftRearFogLight" class="st1" d="M730,323L730,323c-1.1,0-2-0.9-2-2v-9c0-1.1,0.9-2,2-2l0,0c1.1,0,2,0.9,2,2v9
		C732.1,322.1,731.2,323,730,323z"/>
</g>
<g id="VanFront">
	<path id="FrontBumper_00000060008286567543479170000006085367933156341418_" class="st0" d="M152.9,168.8l6.4-2l-9.4-4.4h-43.2
		c-19.5,0-40.1-0.8-43.2,10.4c-0.2,0.8-0.3,1.7-0.3,2.6v158.2c0,4.4,2.6,8.5,6.6,10.3c8.5,4,21.1,4.6,36.8,2.9l43.2-0.3l9.4-3.7
		l-6.7-2c0-9.7-2.7-19.5-8.1-29.5V197.4C149,188,151.9,178.5,152.9,168.8z"/>
	<path id="RightHeadlight" class="st1" d="M130,204.7c0.5-15.9,1.1-31.5,8.8-39.8c0.3-0.3,0.9-0.7,1.4-0.7c4.1-0.3,8.2,1.2,12.7,4.5
		c-1.2,10.3-4,19.9-8.4,28.6c-3.3,3.8-8,6.3-13.7,7.9C130.4,205.4,130,205.2,130,204.7z"/>
	<path id="LeftHeadlight_00000183241584024653628010000016231143654352832703_" class="st1" d="M130,305.1
		c0.5,15.9,1.1,31.5,8.8,39.8c0.3,0.3,0.9,0.7,1.4,0.7c4.1,0.3,8.2-1.2,12.7-4.5c-1.2-10.3-4-19.9-8.4-28.6c-3.3-3.8-8-6.3-13.7-7.9
		C130.4,304.4,130,304.6,130,305.1z"/>
	<path id="Grill_00000067221378417670010990000009432334770609224590_" class="st3" d="M111.3,191.6c0,0.8,1,1.1,1.5,0.6
		c4.7-5.8,8-12.9,9-22.3c0.2-2.5-1.7-4.7-4.2-4.7c0,0-11.9,0-18.6,0c-5.4,0-15.7,2.5-19.8,3.5c-1,0.2-1.7,1.1-1.7,2.1v3.6
		c0,0.6,0.2,1.2,0.7,1.6l7.2,6.9c1.2,1.1,1.9,2.7,1.9,4.4v7.9c0,0.6-0.7,1-1.1,0.8l-9.3-4.2c-1.5-0.7-3.2,0.5-3.2,2
		c0,0-0.8,34.9-0.8,59.1s1,61.8,1,61.8c0,1.6,1.7,2.7,3.2,2l8.2-3.6c0.6-0.2,1.1,0.1,1.1,0.8v8.6c0,1.5-0.6,2.9-1.6,4.1l-6.8,7.6
		c-0.3,0.5-0.6,0.9-0.6,1.5v1.8c0,1,0.7,1.9,1.7,2.1c4,1,14,3.3,18.3,3.3c5.4,0,20.3,0,20.3,0c2.3,0,4.1-2,3.7-4.3
		c-1.9-13.7-5.1-21.2-9-24.3c-0.6-0.5-1.4,0-1.4,0.7v12.9c0,0.7-0.7,1.1-1.4,1L95,324.1c-1.7-0.6-2.9-2.1-3.1-4
		c-0.5-9.8-1.8-41.7-1.9-67c-0.1-25.2,1.4-54.6,1.9-63.8c0.1-1.8,1.2-3.3,2.9-3.8l14.9-5.2c0.7-0.2,1.4,0.2,1.4,0.9L111.3,191.6z"/>
	<path id="Grill_00000106849540147520144380000000613846640253030824_" class="st3" d="M111.5,204.3c-3.1,1.5-6,3.4-9,5.5
		c-0.3,0.2-0.6,0.8-0.6,1.2v86.4c0,0.3,0.1,0.7,0.3,0.9c1.9,2.5,5.4,4.9,9.3,7.2c1,0.6,2.3-0.1,2.3-1.2v-98.8
		C113.7,204.5,112.5,203.7,111.5,204.3z"/>
	<circle id="LeftFrontFogLight_00000138540359645144759070000005138865962800574365_" class="st4" cx="92.1" cy="331.6" r="3.8"/>
	<circle id="RightFrontFogLight_00000024713400598006311520000006601162857620091284_" class="st4" cx="92.1" cy="177.7" r="3.8"/>
</g>
<g id="VanLeftSide">
	<path id="LeftFrontStruts" class="st0" d="M361.9,322.9c-42.4,0.2-62.8,2.5-84.6,15.3l-41.8,27.5l5.2,4.5c0,0,30.4-27.9,57.5-37.6
		c25.1-7.7,63.7-6.2,63.7-6.2"/>
	<path id="LeftQuarterPanel" class="st0" d="M361.9,322.9l220.3-1.1c0.9,0,1.7,0.7,1.8,1.6c4.6,36.2,5.4,77.9,4.1,122.7l-20.3-0.2
		c0,0-7.6-10.8-20-13.9c-12.7-2.6-31-1-41.2,12.5c-10.3,13.6-10.7,31-10.7,31h-12.2c0.8-56,0.9-108.4-1.6-146.4
		c-0.1-1.2-1.1-2.3-2.5-2.3L362,326.5"/>
	<path id="LeftFrontDoor" class="st0" d="M256.1,478.9c0-11.4-1.7-21.1-5-29.3c-1-2.5-1.8-5.1-2.1-7.8c-2-14.2-2.8-32.4-2.4-51.9
		c-0.7-1.6-10.8-9.3-11.2-12.2c-0.3-3.3,5.2-7.5,5.2-7.5s30.7-26.4,49.7-34.2c20.5-7.9,44-9.9,71.5-9.6v123.8
		c0,3.7,0.3,7.5,0.9,11.1l2.7,17.5L256.1,478.9L256.1,478.9z"/>
	<path id="LeftFender" class="st0" d="M240.7,370.3l-5.2-4.5L210.7,380c-35.4,6.2-60.6,13.9-70.8,21.5c-0.1,0.1-0.3,0.2-0.3,0.3
		s0.2,0,0.2,0h2.5c0.2,0,0.5,0,0.6-0.1c13.1-5.2,25.9-8.4,38.4-9.3c0.3,0,0.6,0.1,0.8,0.3c3.2,5.1,2,10.1-6.1,14.8
		c0,0-11.5,12.5-10.2,24.5c1.4,12,11.6,16.9,11.6,16.9s9.6-14.7,28.8-16c16.6-1.1,27.5,6.7,34.5,16.9c6.2,9,7.6,33,7.6,33h7.9v-4.1
		c0-10.7-1.5-19.2-3.8-26.3c-0.8-2.5-1.5-5.1-2-7.7c-3.4-17.5-4.4-34.1-3.8-55.1c-0.8-2-9.5-7.6-11-12.5
		C234.7,375.1,240.7,370.3,240.7,370.3z"/>
	<path id="LeftRearDoor" class="st0" d="M483.5,475.4c0.8-56,0.9-108.4-1.6-146.4c-0.1-1.2-1.1-2.3-2.5-2.3l-117.5-0.2v126.8
		c0,1.8,0.1,3.7,0.5,5.5l3.2,20.2L483.5,475.4z"/>
	<path id="FrontBumper" class="st0" d="M169,480.8c0.6-13.1,3.2-23.5,8.4-31.6c0,0-10.4-5.5-11.6-16.9
		c-1.4-11.4,10.2-24.5,10.2-24.5l-13.7,3.3c-2,0.5-4,1.2-5.8,2.3c-6.7,3.7-17.9,7.6-28.4,11.1c0,0-2.6,1.8-2.7,7
		c0,0.2,0.1,0.3,0.3,0.3c0.9,0,1.9,0,2.6,0c0.5,0,0.7,0.5,0.5,0.8l-5.3,9.6c-0.9,1.5-1.4,3.2-1.4,4.9V458c0,1.1,0.9,2,2,2l0,0
		c0.7,0,1.2,0.5,1.4,1.1l1.7,10.5c0.1,0.8-0.3,1.6-1,1.8l-3.2,1.2c-0.6,0.3-0.9,1-0.9,1.6l0,0c0,0.8,0.6,1.5,1.5,1.6l43.2,4.6
		C167.9,482.9,168.9,482,169,480.8z"/>
	<path id="FrontBumper_00000113354579762811125920000007929291691943067782_" class="st0" d="M144.3,394.3l6.3,1.4
		c-3.3,1.5-6.3,2.6-11.2,6.1h-4.7c-0.1,0-0.1-0.1-0.1-0.2C136.8,398.9,140.8,396.1,144.3,394.3z"/>
	<path id="LeftHeadlight" class="st1" d="M181.2,392.6c-12.7,0.9-25.5,4.2-38.4,9.2c-0.5,0.1-0.9,0.2-1.2,0.2l-5.3-0.1
		c-0.9,0-1.6,0.7-1.7,1.6l-0.7,11.1c-0.1,2.3-0.9,4.4-2,6.2l-2,3.1c10.5-3.6,20.1-7.1,25.5-9.7c2.8-1.4,5.8-2.5,8.8-3.3l11.8-3.1
		C183.9,402.5,186,397.4,181.2,392.6z"/>
	<path id="Hood_00000176018658500836727650000000999187970768708273_" class="st0" d="M144.3,394.3c15.7-8.4,45.3-14.1,64.6-14.2
		c0.1,0,0.1,0.2,0,0.2c-16.8,3.4-44.5,9.7-58.4,15.4L144.3,394.3z"/>
	<path id="Windshield_00000056428430014483961470000004781315104743880589_" class="st1" d="M290.8,331.6
		c-14.1,2.8-35.4,15.6-83.4,48.6l3.2-0.1l24.7-14.2C235.4,365.8,278.6,336.4,290.8,331.6z"/>
	<polygon id="LeftRockerPanels" class="st0" points="256.1,483 495.5,478.9 495.7,475.4 483.5,475.4 365.4,478.9 256.1,478.9 	"/>
	<path id="RearBumper" class="st2" d="M567.7,445.9c4.9,7.7,7.8,18,9.2,30.5c0,0.6,0.5,0.9,1,0.9l28-1.5c3.7-0.2,6.7-3.3,6.7-7.1
		v-7.8c0-1.1-0.8-2.1-1.9-2.3l-2-0.5c-1.2-0.2-2-1.4-2-2.6v-2.9c0-1.1-0.5-2.1-1.1-3.1l-1.9-2.3c-0.9-1-2.1-1.6-3.5-1.6l-12,0.2
		L567.7,445.9z"/>
	<path id="LeftTrunkLid" class="st0" d="M583.8,322.5c0-0.3,0.2-0.6,0.5-0.5l4.6,1.5c1.9,0.3,3.3,1.9,3.6,3.7l6.4,41.9
		c1.7,11.1,2.6,22.4,2.6,33.6v43l-13.7,0.2l0.3-62.1C588.1,358.9,586,337.3,583.8,322.5z"/>
	<path id="LeftTailLight" class="st1" d="M589.6,385.4h4.9c1.1,0,2.1,0.5,2.9,1.2l2.9,3.2c0.7,0.8,1.1,1.7,1.1,2.7l0.3,33h-12.1
		L589.6,385.4L589.6,385.4z"/>
	<circle id="LeftFrontTier_00000012449196270901073860000013683606311604669841_" class="st5" cx="209" cy="472.3" r="33.7"/>
	<circle id="LeftFrontWheelRim" class="st6" cx="209" cy="472.3" r="24.4"/>
	<path id="FrontLeftDoorWindow" class="st1" d="M354.6,333.1l-0.8,25.9c-0.5,14.2-11.8,25.6-26,26.3l-63.4,2.7v-32.1
		c0,0,32.3-19.2,42-21.8c8.5-2.3,39.4-2.5,46.7-2.5C354,331.6,354.7,332.3,354.6,333.1z"/>
	<path id="Grill" class="st3" d="M130.6,434.6v-1.4c0-0.6,0.3-1.1,0.9-1.4l10.6-5.3c2.6-1.4,5.9-1,8.1,0.8l3.8,2.9
		c0.6,0.5,1,1.1,1.2,1.8l0.3,1.2v28.1c-0.1,2.7-0.7,5-1.8,6.7h-5.2c-1.1,0-2.3-0.5-3.1-1.4l-6.7-7c-0.2-0.2-0.6-0.5-0.9-0.3
		l-6.2,0.2c-0.7,0-1.2,0.6-1.2,1.2v1.4c0,0.2,0,0.5,0.1,0.6l2.3,4.5c0.9,1.8,0.6,4-0.9,5.3l-2.3,2.1h-5.8l2.1-1l1-1.8l-1.7-10.5
		l-1.4-1.1l-2-2l0.2-1.9l14.1-2.4c1.6-0.2,2.8-1.5,3.2-2.9l3.5-13.3c0.2-0.9-0.5-1.7-1.4-1.8l-10.3-0.5
		C131,435.4,130.6,435,130.6,434.6z"/>
	<path id="LeftMirror" class="st7" d="M250,378l4.6-2.1c0.9-0.5,1.5-1.4,1.5-2.3v-3.3c0-2.5,2-4.5,4.5-4.5h4.6c2.5,0,4.5,2,4.5,4.5
		v8.5c0,1.7-1,3.3-2.6,4.1l-1.7,0.8c-0.6,0.3-1.2,0.5-1.9,0.5h-6c-0.9,0-1.7-0.3-2.4-0.9c-1.4-1.2-2.8-2.1-5.2-2.3V378z"/>
	<circle id="LeftRearTier" class="st5" cx="536.1" cy="468.7" r="33.7"/>
	<circle id="LeftRearWheelRim" class="st6" cx="536.1" cy="468.7" r="24.4"/>
	<circle id="LeftFrontFogLight" class="st4" cx="145.9" cy="456" r="3.8"/>
</g>
<g id="VanRightSide">
	<path id="LeftFrontStruts_00000065797514901130901380000017684923891608664213_" class="st0" d="M362,183
		c-42.4-0.2-62.8-2.5-84.6-15.3l-41.8-27.5l5.2-4.5c0,0,30.4,27.9,57.5,37.6c25.1,7.7,63.7,6.2,63.7,6.2"/>
	<path id="LeftQuarterPanel_00000093874369059442106490000016109330820753341839_" class="st0" d="M362,183l220.3,1.1
		c0.9,0,1.7-0.7,1.8-1.6c4.6-36.2,5.4-77.9,4.1-122.7l-20.3,0.2c0,0-7.6,10.8-20,13.9c-12.7,2.6-31,1-41.2-12.5s-10.7-31-10.7-31
		h-12.2c0.8,56,0.9,108.4-1.6,146.4c-0.1,1.2-1.1,2.3-2.5,2.3l-117.5,0.2"/>
	<path id="LeftFrontDoor_00000090979074102328319530000003470871429640223616_" class="st0" d="M256.3,27.1c0,11.4-1.7,21.1-5,29.3
		c-1,2.5-1.8,5.1-2.1,7.8c-2,14.2-2.8,32.4-2.4,51.9c-0.7,1.6-10.8,9.3-11.2,12.2c-0.3,3.3,5.2,7.5,5.2,7.5s30.7,26.4,49.7,34.2
		c20.5,7.9,44,9.9,71.5,9.6V55.7c0-3.7,0.3-7.5,0.9-11.1l2.7-17.5H256.3z"/>
	<path id="LeftFender_00000005974784050548375570000017264267535906288563_" class="st0" d="M240.8,135.7l-5.2,4.5L210.8,126
		c-35.4-6.2-60.6-13.9-70.8-21.5c-0.1-0.1-0.3-0.2-0.3-0.3h0.2h2.5c0.2,0,0.5,0,0.6,0.1c13.1,5.2,25.9,8.4,38.4,9.3
		c0.3,0,0.6-0.1,0.8-0.3c3.2-5.1,2-10.1-6.1-14.8c0,0-11.5-12.5-10.2-24.5c1.4-12,11.6-16.9,11.6-16.9s9.6,14.7,28.8,16
		c16.6,1.1,27.5-6.7,34.5-16.9c6.2-9,7.6-33,7.6-33h7.9v4.1c0,10.7-1.5,19.2-3.8,26.3c-0.8,2.5-1.5,5.1-2,7.7
		c-3.4,17.5-4.4,34.1-3.8,55.1c-0.8,2-9.5,7.6-11,12.5C234.8,130.8,240.8,135.7,240.8,135.7z"/>
	<path id="LeftRearDoor_00000142874161204873392530000016205740724978892211_" class="st0" d="M483.6,30.6
		c0.8,56,0.9,108.4-1.6,146.4c-0.1,1.2-1.1,2.3-2.5,2.3L362,179.5V52.8c0-1.8,0.1-3.7,0.5-5.5l3.2-20.2L483.6,30.6z"/>
	<path id="FrontBumper_00000150789698115221991370000001716945885658043045_" class="st0" d="M169.1,25.2
		c0.6,13.1,3.2,23.5,8.4,31.6c0,0-10.4,5.5-11.6,16.9C164.5,85.2,176,98.3,176,98.3L162.4,95c-2-0.5-4-1.2-5.8-2.3
		c-6.7-3.7-17.9-7.6-28.4-11.1c0,0-2.6-1.8-2.7-7c0-0.2,0.1-0.3,0.3-0.3c0.9,0,1.9,0,2.6,0c0.5,0,0.7-0.5,0.5-0.8l-5.3-9.6
		c-0.9-1.5-1.4-3.2-1.4-4.9V48c0-1.1,0.9-2,2-2l0,0c0.7,0,1.2-0.5,1.4-1.1l1.7-10.5c0.1-0.8-0.3-1.6-1-1.8l-3.2-1.2
		c-0.6-0.3-0.9-1-0.9-1.6l0,0c0-0.8,0.6-1.5,1.5-1.6l43.2-4.6C168.1,23.2,169.1,24,169.1,25.2z"/>
	<path class="st0" d="M144.5,111.6l6.3-1.4c-3.3-1.5-6.3-2.6-11.2-6.1h-4.7c-0.1,0-0.1,0.1-0.1,0.2
		C137.1,107.1,140.9,109.8,144.5,111.6z"/>
	<path id="LeftHeadlight_00000169520154335500488780000009559160411987739280_" class="st1" d="M181.5,113.3
		c-12.7-0.9-25.5-4.2-38.4-9.2c-0.5-0.1-0.9-0.2-1.2-0.2l-5.3,0.1c-0.9,0-1.6-0.7-1.7-1.6l-0.7-11.1c-0.1-2.3-0.9-4.4-2-6.2l-2-3.1
		c10.5,3.6,20.1,7.1,25.5,9.7c2.8,1.4,5.8,2.5,8.8,3.3l11.8,3.1C184.1,103.5,186.2,108.6,181.5,113.3z"/>
	<path id="Hood_00000154386527363685198040000018193840404902977963_" class="st0" d="M144.5,111.6c15.7,8.4,45.3,14.1,64.6,14.2
		c0.1,0,0.1-0.2,0-0.2c-16.8-3.4-44.5-9.7-58.4-15.4L144.5,111.6z"/>
	<path id="Windshield_00000181064069508620391540000014108311365884891799_" class="st1" d="M291.1,174.3
		c-14.1-2.8-35.4-15.6-83.4-48.6l3.2,0.1l24.7,14.2C235.6,140.2,278.9,169.6,291.1,174.3z"/>
	<polygon id="LeftRockerPanels_00000080914060559296176730000000237945520488365213_" class="st0" points="256.3,23.1 495.7,27.1 
		495.9,30.6 483.6,30.6 365.6,27.1 256.3,27.1 	"/>
	<path id="RearBumper_00000095304436744520566040000010251294003243654315_" class="st2" d="M567.9,60.1c4.9-7.7,7.8-18,9.2-30.5
		c0-0.6,0.5-0.9,1-0.9l28,1.5c3.7,0.2,6.7,3.3,6.7,7.1v7.8c0,1.1-0.8,2.1-1.9,2.3l-2,0.5c-1.2,0.2-2,1.4-2,2.6v2.9
		c0,1.1-0.5,2.1-1.1,3.1l-1.9,2.3c-0.9,1-2.1,1.6-3.5,1.6l-12-0.3L567.9,60.1z"/>
	<path id="LeftTrunkLid_00000177486660253254118550000014822304938552485021_" class="st0" d="M584,183.5c0,0.3,0.2,0.6,0.5,0.5
		l4.6-1.5c1.9-0.3,3.3-1.9,3.6-3.7l6.4-41.9c1.7-11.1,2.6-22.4,2.6-33.6V60.1l-13.6-0.2l0.3,62.1C588.2,147.1,586.2,168.8,584,183.5
		z"/>
	<path id="LeftTailLight_00000081609466737678206820000007343608347078734526_" class="st1" d="M589.7,120.6h4.9
		c1.1,0,2.1-0.5,2.9-1.2l2.9-3.2c0.7-0.8,1.1-1.7,1.1-2.7l0.3-33h-12.1L589.7,120.6L589.7,120.6z"/>
	<circle id="LeftFrontTier_00000111875017951013848940000016705656666896104326_" class="st5" cx="209.3" cy="33.7" r="33.7"/>
	<circle id="LeftFrontWheelRim_00000183949851568507253310000013233399862949399445_" class="st6" cx="209.3" cy="33.7" r="24.4"/>
	<path id="FrontLeftDoorWindow_00000076603651514908784490000007282842925607051413_" class="st1" d="M354.8,172.9L354,147
		c-0.5-14.2-11.8-25.6-26-26.3l-63.4-2.7v32.1c0,0,32.3,19.2,42,21.8c8.5,2.3,39.4,2.5,46.7,2.5
		C354.1,174.3,354.8,173.7,354.8,172.9z"/>
	<path id="Grill_00000148625545922501035120000001859087183867952040_" class="st3" d="M130.7,71.4v1.4c0,0.6,0.3,1.1,0.9,1.4
		l10.6,5.3c2.6,1.4,5.9,1,8.1-0.8l3.8-2.9c0.6-0.5,1-1.1,1.2-1.8l0.3-1.2V44.5c-0.1-2.7-0.7-5-1.8-6.7h-5.2c-1.1,0-2.3,0.5-3.1,1.4
		l-6.7,7c-0.2,0.2-0.6,0.5-0.9,0.3l-6.2-0.2c-0.7,0-1.2-0.6-1.2-1.2v-1.4c0-0.2,0-0.5,0.1-0.6l2.3-4.5c0.9-1.8,0.6-4-0.9-5.3
		l-2.3-2.1h-5.8l2.1,1l1,1.8l-1.7,10.5l-1.4,1.1l-2,2l0.2,1.9l14.1,2.4c1.6,0.2,2.8,1.5,3.2,2.9l3.5,13.3c0.2,0.9-0.5,1.7-1.4,1.8
		l-10.3,0.5C131.2,70.6,130.7,71,130.7,71.4z"/>
	<path id="LeftMirror_00000158710363717748605270000004425608997863993491_" class="st7" d="M250.2,128l4.6,2.1
		c0.9,0.5,1.5,1.4,1.5,2.3v3.3c0,2.5,2,4.5,4.5,4.5h4.6c2.5,0,4.5-2,4.5-4.5v-8.5c0-1.7-1-3.3-2.6-4.1l-1.7-0.8
		c-0.6-0.3-1.2-0.5-1.9-0.5h-6c-0.9,0-1.7,0.3-2.4,0.9c-1.4,1.2-2.8,2.1-5.2,2.3V128z"/>
	<circle id="LeftRearTier_00000057113842314094468550000016143144165748608685_" class="st5" cx="536.3" cy="37.3" r="33.7"/>
	<circle id="LeftRearWheelRim_00000060727114589809371300000018186324820448212883_" class="st6" cx="536.3" cy="37.3" r="24.4"/>
	<circle id="RightFrontFogLight" class="st4" cx="145.9" cy="50.3" r="3.8"/>
</g>
<g id="Line">
	<g id="TopLine">
		<path class="st8" d="M567.6,216h-69.4c-2.4,0-4.4-1.9-4.4-4.4v-12c0-2.4,1.9-4.4,4.4-4.4h69.4c2.4,0,4.4,1.9,4.4,4.4v12
			C571.8,214.1,569.9,216,567.6,216z"/>
		<path class="st8" d="M567.6,240h-69.4c-2.4,0-4.4-1.9-4.4-4.4v-12c0-2.4,1.9-4.4,4.4-4.4h69.4c2.4,0,4.4,1.9,4.4,4.4v12
			C571.8,238.1,569.9,240,567.6,240z"/>
		<path class="st8" d="M567.6,263.3h-69.4c-2.4,0-4.4-1.9-4.4-4.4v-12c0-2.4,1.9-4.4,4.4-4.4h69.4c2.4,0,4.4,1.9,4.4,4.4v12
			C571.8,261.3,569.9,263.3,567.6,263.3z"/>
		<path class="st8" d="M567.6,286.5h-69.4c-2.4,0-4.4-1.9-4.4-4.4v-12c0-2.4,1.9-4.4,4.4-4.4h69.4c2.4,0,4.4,1.9,4.4,4.4v12
			C571.8,284.6,569.9,286.5,567.6,286.5z"/>
		<path class="st8" d="M567.6,309.9h-69.4c-2.4,0-4.4-1.9-4.4-4.4v-12c0-2.4,1.9-4.4,4.4-4.4h69.4c2.4,0,4.4,1.9,4.4,4.4v12
			C571.8,307.9,569.9,309.9,567.6,309.9z"/>
		<path class="st8" d="M472.8,216H368.1c-2.4,0-4.4-1.9-4.4-4.4v-12c0-2.4,1.9-4.4,4.4-4.4h104.6c2.4,0,4.4,1.9,4.4,4.4v12
			C477.2,214.1,475.1,216,472.8,216z"/>
		<path class="st8" d="M472.8,240H368.1c-2.4,0-4.4-1.9-4.4-4.4v-12c0-2.4,1.9-4.4,4.4-4.4h104.6c2.4,0,4.4,1.9,4.4,4.4v12
			C477.2,238.1,475.1,240,472.8,240z"/>
		<path class="st8" d="M472.8,263.3H368.1c-2.4,0-4.4-1.9-4.4-4.4v-12c0-2.4,1.9-4.4,4.4-4.4h104.6c2.4,0,4.4,1.9,4.4,4.4v12
			C477.2,261.3,475.1,263.3,472.8,263.3z"/>
		<path class="st8" d="M472.8,311.7H368.1c-2.4,0-4.4-1.9-4.4-4.4v-12c0-2.4,1.9-4.4,4.4-4.4h104.6c2.4,0,4.4,1.9,4.4,4.4v12
			C477.2,309.7,475.1,311.7,472.8,311.7z"/>
		<path class="st8" d="M472.8,286.5H368.1c-2.4,0-4.4-1.9-4.4-4.4v-12c0-2.4,1.9-4.4,4.4-4.4h104.6c2.4,0,4.4,1.9,4.4,4.4v12
			C477.2,284.6,475.1,286.5,472.8,286.5z"/>
		<path class="st8" d="M486.5,315.8h-3.6c-0.9,0-1.7-0.8-1.7-1.7V192.7c0-0.9,0.8-1.7,1.7-1.7h3.6c0.9,0,1.7,0.8,1.7,1.7v121.5
			C488.2,315,487.4,315.8,486.5,315.8z"/>
		<path class="st8" d="M358.4,315.4h-3.6c-0.9,0-1.7-0.8-1.7-1.7V192.2c0-0.9,0.8-1.7,1.7-1.7h3.6c0.9,0,1.7,0.8,1.7,1.7v121.5
			C360.1,314.6,359.4,315.4,358.4,315.4z"/>
		<path class="st8" d="M289.9,188.4l57.6,2c2.1,0.1,3.8,1.8,3.8,4v117.2c0,2.1-1.7,3.8-3.8,4l-57.6,2.1"/>
		<path class="st8" d="M583.8,195.4h-5c-2,0-3.7,1.7-3.7,3.7v107c0,2,1.7,3.7,3.7,3.7h5"/>
		<path class="st8" d="M264.5,150.1c-10.8-7.5-19.2-13.4-26.7-19.7c-0.9-0.6-1-1.9-0.1-2.6c3.6-4.1,7.5-7.6,12-9.8h14.8"/>
	</g>
	<g id="LeftSideLine">
		<path class="st8" d="M561.3,380.3l-183.6,3.6c-3.5,0.1-6.4-2.7-6.4-6.3v-42.3c0-2.8,2.3-5,5-5H539c8.7,0,27.9,4,29.7,15l2.3,24.2
			C571.5,375.4,567.1,380.2,561.3,380.3z"/>
		<path class="st8" d="M488.8,428.8c-0.1,0.1-0.2,0-0.1-0.1c2.9-4.2,19.9-26,47.9-26c28.2,0,43,22.1,45.4,26.1
			c0,0.1-0.1,0.2-0.1,0.1c-3.4-3.4-24.1-23.4-45.3-22.3C512.3,407.7,492.4,425.3,488.8,428.8z"/>
		<path class="st8" d="M576.6,445.9c0,0-10.8-23.8-41.4-22c-30.5,1.7-45.8,28.5-45.8,28.5l-225.9,5.9c7.5-14,39.3-11.6,98.2-15.5
			l108.2-3.5c7.5-0.2,13.7,5.8,13.6,13.2l0,0"/>
		<polygon class="st8" points="578.4,393.2 483.9,394.7 483.9,396.5 578.4,394.8 		"/>
		<path class="st8" d="M474.3,475.4l-3.4-4.1c-3.3-4-8.1-6.1-13.1-6.1l-94.1,1.6l-82,2.3c-2.6,0.1-5.2,1-7.1,2.8l-8,7h99.1
			L474.3,475.4z"/>
		<path class="st8" d="M252,429.9c0,0-18.5-16.9-42.9-17.7s-43.4,20.1-43.4,20.1s14.6-25.4,43.2-24.5c20.6,0.7,38.1,13.4,38.1,13.4"
			/>
		<path class="st8" d="M248.2,444.4c0,0-10.2-20.6-42.3-20.6s-42.3,33.6-42.3,33.6"/>
		<line class="st8" x1="122.3" y1="445.3" x2="142" y2="441.3"/>
		<polyline class="st8" points="587.6,361.2 595.6,361.2 595.6,370.3 588,370.3 		"/>
		<polyline class="st8" points="588.3,432.1 595.5,432.1 595.5,441.5 588,441.5 		"/>
		<path class="st8" d="M590.2,446.1c5.8,4,7.1,13.9,4,30.3"/>
		<line class="st8" x1="483.9" y1="387.9" x2="588.3" y2="385.4"/>
		<path class="st8" d="M123.5,474.8h17.1h1.9c7.3,0,13.2-5.9,13.2-13.2v-27.2c0-1.9-0.7-3.8-1.9-5.3l-3.8-4.9
			c-1.1-1.4-2.8-1.9-4.5-1.4l-19.9,6.2"/>
		<path class="st8" d="M347.3,400.7h-11.8c-1.1,0-2-0.9-2-2l0,0c0-1.1,0.9-2,2-2h11.8c1.1,0,2,0.9,2,2l0,0
			C349.4,399.8,348.5,400.7,347.3,400.7z"/>
		<path class="st8" d="M391.7,400.7H380c-1.1,0-2-0.9-2-2l0,0c0-1.1,0.9-2,2-2h11.8c1.1,0,2,0.9,2,2l0,0
			C393.7,399.8,392.8,400.7,391.7,400.7z"/>
	</g>
	<g id="RightSideLine">
		<path class="st8" d="M561.2,126.2l-183.7-3.6c-3.5-0.1-6.4,2.7-6.4,6.3v42.3c0,2.8,2.3,5,5,5h162.7c8.7,0,27.9-4,29.7-15l2.3-24.2
			C571.4,131.2,567,126.3,561.2,126.2z"/>
		<path class="st8" d="M488.7,77.9c-0.1-0.1-0.2,0-0.1,0.1c2.9,4.2,19.9,26,47.9,26c28.2,0,43-22.1,45.4-26.1c0-0.1-0.1-0.2-0.1-0.1
			c-3.4,3.4-24.1,23.4-45.3,22.3C512.2,98.9,492.3,81.2,488.7,77.9z"/>
		<path class="st8" d="M576.5,60.7c0,0-10.8,23.8-41.4,22c-30.5-1.7-45.8-28.5-45.8-28.5l-225.9-5.9c7.5,14,39.3,11.6,98.2,15.5
			l108.2,3.5c7.5,0.2,13.7-5.8,13.6-13.2l0,0"/>
		<polygon class="st8" points="578.3,113.4 483.8,111.9 483.8,110.2 578.3,111.7 		"/>
		<path class="st8" d="M474.1,31.2l-3.4,4.1c-3.3,4-8.1,6.1-13.1,6.1l-94.1-1.6l-82-2.3c-2.6-0.1-5.2-1-7.1-2.8l-8-7h99L474.1,31.2z
			"/>
		<path class="st8" d="M251.9,76.6c0,0-18.5,16.9-42.9,17.7c-24.4,0.9-43.4-20.1-43.4-20.1s14.6,25.4,43.2,24.5
			c20.6-0.7,38.1-13.4,38.1-13.4"/>
		<path class="st8" d="M248.1,62.3c0,0-10.2,20.6-42.3,20.6s-42.3-33.6-42.3-33.6"/>
		<line class="st8" x1="122.1" y1="61.4" x2="141.9" y2="65.2"/>
		<polyline class="st8" points="587.4,145.3 595.5,145.3 595.5,136.3 587.9,136.3 		"/>
		<polyline class="st8" points="588.2,74.5 595.3,74.5 595.3,65.2 587.9,65.2 		"/>
		<path class="st8" d="M590,60.5c5.8-4,7.1-13.9,4-30.3"/>
		<line class="st8" x1="483.8" y1="118.6" x2="588.1" y2="121.1"/>
		<path class="st8" d="M123.4,31.9h17.1h1.9c7.3,0,13.2,5.9,13.2,13.2v27.2c0,1.9-0.7,3.8-1.9,5.3l-3.8,4.9
			c-1.1,1.4-2.8,1.9-4.5,1.4l-19.9-6.2"/>
		<path class="st8" d="M347.2,105.9h-11.8c-1.1,0-2,0.9-2,2l0,0c0,1.1,0.9,2,2,2h11.8c1.1,0,2-0.9,2-2l0,0
			C349.3,106.8,348.3,105.9,347.2,105.9z"/>
		<path class="st8" d="M391.5,105.9h-11.8c-1.1,0-2,0.9-2,2l0,0c0,1.1,0.9,2,2,2h11.8c1.1,0,2-0.9,2-2l0,0
			C393.5,106.8,392.6,105.9,391.5,105.9z"/>
	</g>
	<g id="FrontLine">
		<path class="st8" d="M106.2,181.7c-3.7,9-4.7,19-4.4,29.4"/>
		<path class="st8" d="M106.2,327.6c-3.5-8.6-4.4-18.5-4.1-29.2"/>
		<path class="st8" d="M87.2,166.8h-6.8c-4.2,0-7.6,3.3-7.7,7.5l-1.2,17.9c-0.6,8-0.8,16-0.8,24.2v75.9c0,8.2,0.3,16.5,0.9,24.7
			l1.2,16.8c0.1,4,3.2,7.1,7.1,7.5l7.5,0.6"/>
		<line class="st8" x1="113.7" y1="304.7" x2="113.7" y2="315.2"/>
		<line class="st8" x1="113.7" y1="205.6" x2="113.7" y2="191.1"/>
	</g>
	<g id="BackLine">
		<path class="st8" d="M595.5,244.6v-43.4c0-4.3,2.8-8,6.9-9.2l21.6-6.2c1.6-0.5,3.3-0.7,5-0.7h9.7c1.8,0,3.3,1.5,3.3,3.3v56.2"/>
		<path class="st8" d="M595.5,244.6v60c0,4.3,2.8,8,6.9,9.2l21.6,6.2c1.6,0.5,3.3,0.7,5,0.7h9.7c1.8,0,3.3-1.5,3.3-3.3v-72.8"/>
		<path class="st0" d="M658.7,276.2L658.7,276.2c-1,0-1.8-0.8-1.8-1.8v-19.1c0-1,0.8-1.8,1.8-1.8l0,0c1,0,1.8,0.8,1.8,1.8v19.1
			C660.7,275.4,659.8,276.2,658.7,276.2z"/>
		<path class="st8" d="M626.5,175v2.6c0,1.4,1.1,2.4,2.4,2.4h3.5c1.4,0,2.4-1.1,2.4-2.4v-4.7"/>
		<path class="st8" d="M696.7,167.6v4.7c0,1.5,1.1,2.6,2.6,2.6h4c1.5,0,2.6-1.1,2.6-2.6v-4.7"/>
		<path class="st8" d="M626.5,329.9v-2.6c0-1.4,1.1-2.4,2.4-2.4h3.5c1.4,0,2.4,1.1,2.4,2.4v4.7"/>
		<path class="st8" d="M696.7,337.3v-4.7c0-1.5,1.1-2.6,2.6-2.6h4c1.5,0,2.6,1.1,2.6,2.6v4.7"/>
	</g>
	<path class="st8" d="M712.6,185.1h5.9c2.3,0,4.2,1.9,4.2,4.2v55.4v73.1c0,2.3-1.9,4.2-4.2,4.2h-5.9c-0.8,0-1.4,0.6-1.4,1.4v0.3
		c0,0.8,0.6,1.4,1.4,1.4h7c3.5,0,6.3-2.8,6.3-6.3V188.7c0-3.5-2.8-6.3-6.3-6.3h-7c-0.8,0-1.4,0.6-1.4,1.4l0,0
		C711.4,184.5,712,185.1,712.6,185.1z"/>
	<line class="st8" x1="732.6" y1="175" x2="732.6" y2="328.4"/>
	<path class="st8" d="M686,250h14.2c3.2,0,5.6,2.6,5.6,5.6v56.4c0,3.2-2.6,5.6-5.6,5.6H686"/>
	<polyline class="st8" points="686,258.2 700,258.2 700,309.9 686,309.9 	"/>
	<path class="st8" d="M675.5,254.7v58.6c0,2.5,2,4.6,4.6,4.6h5.9v-67.8h-5.9C677.5,250,675.5,252.1,675.5,254.7z"/>
</g>
	<g id="markers-container"></g>
<path class="st8" d="M264.3,388h-14.8c-4.5-2.3-8.4-5.8-12-9.8c-0.9-0.7-0.8-2,0.1-2.6c7.5-6.2,15.8-12.2,26.7-19.7"/>
</svg>
