<?xml version="1.0" encoding="utf-8"?>
<svg version="1.1" id="svg-root" xmlns="http://www.w3.org/2000/svg" xmlns:xlink="http://www.w3.org/1999/xlink" x="0px" y="0px"
	viewBox="0 0 301.2 231" style="enable-background:new 0 0 301.2 231;" xml:space="preserve">

<defs>
<script type="text/ecmascript"><![CDATA[
/**
 * Отвечает за генерацию SVG-элементов (<g> и <circle>),
 * их добавление в DOM и удаление.
 */
class SVGMarkerManager {
    constructor(containerId) {
        this.containerId = containerId;
        this.ns = "http://www.w3.org/2000/svg";
    }

    get container() {
        return document.getElementById(this.containerId);
    }

    /**
     * Создает SVG-группу с маркерами, добавляет её в контейнер маркеров
     */
    createMarker(x, y, markerId, onAttachHandlers) {
        const markerContainer = this.container;
        if (!markerContainer) return;

        const markerGroup = document.createElementNS(this.ns, "g");
        markerGroup.setAttribute("id", markerId);
        markerGroup.setAttribute("data-id", markerId);
        markerGroup.setAttribute("data-type", "damage_marker");
        markerGroup.setAttribute("style", "cursor: pointer;");

        const circle = document.createElementNS(this.ns, "circle");
        circle.setAttribute("cx", x);
        circle.setAttribute("cy", y);
        circle.setAttribute("r", "5");
        circle.setAttribute("fill", "#FF0000");
        circle.setAttribute("stroke", "#FFFFFF");
        circle.setAttribute("stroke-width", "1");
        circle.setAttribute("data-type", "damage_marker");
        circle.setAttribute("data-id", markerId);

        markerGroup.appendChild(circle);
        markerContainer.appendChild(markerGroup);

        if (typeof onAttachHandlers === "function") {
            onAttachHandlers(markerGroup);
            onAttachHandlers(circle);
        }
    }

    /**
     * Удаляет маркер из DOM по ID.
     */
    removeMarker(markerId) {
        const markerElement = document.getElementById(markerId);
        if (markerElement) {
            markerElement.parentNode.removeChild(markerElement);
        }
    }

    /**
     * Полная очистка всех маркеров на схеме.
     */
    clearAll() {
        const markerContainer = this.container;
        if (markerContainer) markerContainer.innerHTML = "";
    }

    /**
     * Отрисовка массива переданных 2D маркеров.
     */
    highlightMarker(markers, onAttachHandlers) {
        this.clearAll();
        if (!markers) return;

        let parsed = typeof markers === 'string' ? JSON.parse(markers) : markers;
        if (!Array.isArray(parsed)) parsed = [parsed];

        parsed.forEach(data => {
            if (!data || data.x === undefined || data.y === undefined) return;
            const id = data.id || `marker_${Date.now()}_${Math.floor(Math.random() * 1000)}`;
            this.createMarker(parseFloat(data.x), parseFloat(data.y), id, onAttachHandlers);
        });
    }
}

/**
 * Отвечает за поиск деталей на SVG-панели и определение их родительских групп.
 */
class SVGModelManager {
    constructor(rootId) {
        this.root = document.getElementById(rootId);
    }

    /**
     * Ищет элемент детали на SVG по строковому имени.
     */
    findPart(partName) {
        if (!partName) return null;
        return this.root.querySelector(`[id^="${partName}"]`) ||
            this.root.querySelector(`[id*="${partName}"]`);
    }

    /**
     * Ищет ID детали вверх по DOM-дереву от места клика.
     */
    findPartId(targetElement) {
        let currentEl = targetElement;
        while (currentEl && currentEl !== this.root) {
            if (currentEl.id &&
                !currentEl.id.startsWith("line-") &&
                currentEl.id !== "lines" &&
                !currentEl.id.startsWith("marker_")) {
                return {id: currentEl.id, element: currentEl};
            }
            currentEl = currentEl.parentNode;
        }
        return null;
    }
}

/**
 * Принимает нормализованные координаты куба (nx, ny, nz) и проецирует их.
 */
class SVGProjector {
    /**
     * Проецирует трехмерную точку повреждения на плоскость 2D
     * @param {Object} damage - Объект повреждения из 3D
     * @param {SVGElement} svgPart - Найденный SVG элемент детали
     */
    static project3DTo2D(damage, svgPart) {
        const parentGroup = svgPart.closest("g");
        if (!parentGroup) {
            console.warn("Parent group not found for part:", damage.partName);
            return null;
        }

        const groupId = parentGroup.id.toLowerCase();
        let bbox;
        if (damage.partName.includes("FrontBumperGrille")) {
            const allGrilleParts = parentGroup.querySelectorAll(`[id*="FrontBumperGrille"]`);

            if (allGrilleParts.length > 0) {
                let minX = Infinity, minY = Infinity, maxX = -Infinity, maxY = -Infinity;

                allGrilleParts.forEach(el => {
                    if (typeof el.getBBox === 'function') {
                        const b = el.getBBox();
                        if (b.width === 0 && b.height === 0) return;
                        if (b.x < minX) minX = b.x;
                        if (b.y < minY) minY = b.y;
                        if (b.x + b.width > maxX) maxX = b.x + b.width;
                        if (b.y + b.height > maxY) maxY = b.y + b.height;
                    }
                });

                bbox = {
                    x: minX,
                    y: minY,
                    width: maxX - minX,
                    height: maxY - minY
                };
            }
        }

        if (!bbox) {
            const target = /(light|grille|bumper|trunklid)/i.test(damage.partName)
            ? svgPart : parentGroup;
            bbox = target.getBBox();
        }

        let exactX = 0;
        let exactY = 0;

        if (groupId.includes("top")) {
            exactX = bbox.x + (1 - damage.nz) * bbox.width;
            exactY = bbox.y + damage.nx * bbox.height;
        } else if (groupId.includes("right")) {
            exactX = bbox.x + (1 - damage.nz) * bbox.width;
            exactY = bbox.y + damage.ny * bbox.height;
        } else if (groupId.includes("left")) {
            exactX = bbox.x + (1 - damage.nz) * bbox.width;
            exactY = bbox.y + (1 - damage.ny) * bbox.height;
        } else if (groupId.includes("front")) {
            exactX = bbox.x + damage.ny * bbox.width;
            exactY = bbox.y + damage.nx * bbox.height;
        } else if (groupId.includes("back")) {
            exactX = bbox.x + (1 - damage.ny) * bbox.width;
            exactY = bbox.y + damage.nx * bbox.height;
        } else {
            console.warn("Unknown SVG view group orientation:", groupId);
            return null;
        }

        return {
            id: damage.id,
            x: parseFloat(exactX.toFixed(2)),
            y: parseFloat(exactY.toFixed(2))
        };
    }
}

let modelManager, markerManager;
let pressedElement = null;
let pointerDownPos = {x: 0, y: 0};

const touchHighlightEffect = "0.3";

document.addEventListener("DOMContentLoaded", () => {
    modelManager = new SVGModelManager("svg-root");
    markerManager = new SVGMarkerManager("markers-container");

    attachTouchHandlers();
    initClickContainer();
});

/**
 * Вызывается нативной стороной для переноса точек из 3D в 2D.
 */
function load3DDamageToSVG(jsonFrom3D) {
    try {
        const damages = typeof jsonFrom3D === "string" ? JSON.parse(jsonFrom3D) : jsonFrom3D;
        const markersForSVG = [];

        damages.forEach(damage => {
            const has3DCords = damage.nx !== undefined && damage.ny !== undefined &&
                damage.nz !== undefined && (damage.nx !== 0 || damage.ny !== 0 || damage.nz !== 0);

            if (!has3DCords) {
                if (damage.x !== undefined && damage.y !== undefined) {
                    markersForSVG.push({id: damage.id,
                        x: parseFloat(damage.x),
                        y: parseFloat(damage.y)});
                }
                return;
            }

            const svgPart = modelManager.findPart(damage.partName);
            if (!svgPart) {
                console.warn("SVG part not found in DOM:", damage.partName);
                return;
            }

            const projectedPoint = SVGProjector.project3DTo2D(damage, svgPart);
            if (projectedPoint) {
                markersForSVG.push(projectedPoint);
            }
        });

        if (markersForSVG.length > 0) {
            highlightDamagedParts(markersForSVG);
        }

    } catch (error) {
        console.error("Projection error 3D to SVG:", error);
    }
}

/**
 * Сканирует документ и вешает события pointerdown на все интерактивные детали схемы.
 */
function attachTouchHandlers() {
    const elements = document.querySelectorAll("[id]");
    elements.forEach(el => {
        if (el.id === "svg-root" ||
            el.id === "lines" ||
            el.id === "markers-container" ||
            el.id.startsWith("line-")) return;
        attachTouchHandlersToElement(el);
    });
}

function attachTouchHandlersToElement(el) {
    if (!el) return;

    el.addEventListener("pointerdown", (e) => {
        pressedElement = e.target;
        pointerDownPos = {x: e.clientX, y: e.clientY};

        if (pressedElement.id?.startsWith("marker_") === false &&
            pressedElement.getAttribute("data-type") !== "damage_marker") {
            pressedElement.style.opacity = touchHighlightEffect;
        }
    });

    const resetOpacity = () => {
        if (pressedElement) {
            if (pressedElement.id?.startsWith("marker_") === false &&
                pressedElement.getAttribute("data-type") !== "damage_marker") {
                pressedElement.style.opacity = "1.0";
            }
            pressedElement = null;
        }
    };

    el.addEventListener("pointerleave", resetOpacity);
    el.addEventListener("pointercancel", resetOpacity);
}

/**
 * Инициализация глобального контейнера кликов.
 */
function initClickContainer() {
    const svgRoot = modelManager.root;

    svgRoot.addEventListener("pointerup", (e) => {
        if (!pressedElement) return;

        const moveDistance = Math.hypot(e.clientX - pointerDownPos.x, e.clientY - pointerDownPos.y);
        if (moveDistance > 8) {
            pressedElement = null;
            return;
        }

        const clickedTarget = e.target;

        if (clickedTarget.getAttribute("data-type") === "damage_marker" ||
            clickedTarget.id?.startsWith("marker_") ||
            clickedTarget.parentNode?.getAttribute("data-type") === "damage_marker") {

            const markerGroup = clickedTarget.closest("g[data-type='damage_marker']") ||
                (clickedTarget.id?.startsWith("marker_") ? clickedTarget : null);

            if (markerGroup) {
                const markerId = markerGroup.id || markerGroup.getAttribute("data-id");
                if (markerId) {
                    markerManager.removeMarker(markerId);

                    if (typeof elementClicked !== "undefined" && elementClicked.postMessage) {
                        elementClicked.postMessage(JSON.stringify({action: "marker_removed",
                            id: markerId}));
                    }
                }
            }
            pressedElement = null;
            e.stopPropagation();
            return;
        }

        if (pressedElement && pressedElement.id?.startsWith("marker_") === false
            && pressedElement.getAttribute("data-type") !== "damage_marker") {
            pressedElement.style.opacity = "1.0";
        }

        const part = modelManager.findPartId(clickedTarget);
        if (!part || part.id === "svg-root") {
            pressedElement = null;
            return;
        }

        const cleanPartName = part.id.split("-")[0];

        const point = svgRoot.createSVGPoint();
        point.x = e.clientX;
        point.y = e.clientY;
        const svgP = point.matrixTransform(svgRoot.getScreenCTM().inverse());

        const parentGroup = part.element.closest("g");
        let viewType = "unknown";
        let nx_2d = 0, ny_2d = 0;

        if (parentGroup?.id) {
            const groupId = parentGroup.id.toLowerCase();
            let bbox;
            if (cleanPartName.includes("FrontBumperGrille")) {
                const allGrilleParts = parentGroup.querySelectorAll(`[id*="FrontBumperGrille"]`);

                if (allGrilleParts.length > 0) {
                    let minX = Infinity, minY = Infinity, maxX = -Infinity, maxY = -Infinity;

                    allGrilleParts.forEach(el => {
                        if (typeof el.getBBox === 'function') {
                            const b = el.getBBox();
                            if (b.width === 0 && b.height === 0) return;
                            if (b.x < minX) minX = b.x;
                            if (b.y < minY) minY = b.y;
                            if (b.x + b.width > maxX) maxX = b.x + b.width;
                            if (b.y + b.height > maxY) maxY = b.y + b.height;
                        }
                    });

                    bbox = {
                        x: minX,
                        y: minY,
                        width: maxX - minX,
                        height: maxY - minY
                    };
                }
            }

            if (!bbox) {
                const target = /(light|grille|bumper|trunklid)/i.test(cleanPartName)
                ? part.element : parentGroup;
                bbox = target.getBBox();
            }

            nx_2d = (svgP.x - bbox.x) / bbox.width;
            ny_2d = (svgP.y - bbox.y) / bbox.height;

            if (groupId.includes("top")) viewType = "top";
            else if (groupId.includes("right")) viewType = "right";
            else if (groupId.includes("left")) viewType = "left";
            else if (groupId.includes("front")) viewType = "front";
            else if (groupId.includes("back")) viewType = "back";
        }

        const newMarkerId = `marker_${Date.now()}_${Math.floor(Math.random() * 1000)}`;

        const eventData = {
            action: "marker_added",
            id: newMarkerId,
            partName: cleanPartName,
            x: parseFloat(svgP.x.toFixed(2)),
            y: parseFloat(svgP.y.toFixed(2)),
            z: 0.0,
            nx_2d: nx_2d,
            ny_2d: ny_2d,
            viewType: viewType
        };

        if (typeof elementClicked !== "undefined" && elementClicked.postMessage) {
            elementClicked.postMessage(JSON.stringify(eventData));
        }

        markerManager.createMarker(svgP.x, svgP.y, newMarkerId, attachTouchHandlersToElement);
        pressedElement = null;
    });
}

function highlightDamagedParts(markers) {
    markerManager.highlightMarker(markers, attachTouchHandlersToElement);
}

window.load3DDamageToSVG = load3DDamageToSVG;
window.highlightDamagedParts = highlightDamagedParts;
window.clearAllMarkers = () => markerManager.clearAll();
window.removeMarkerById = (id) => markerManager.removeMarker(id);
]]></script>
</defs>
<style type="text/css">
	.st0{fill:#FFFFFF;stroke:#000000;stroke-width:0.5;stroke-miterlimit:10;}
	.st1{fill:#EAEAEA;stroke:#000000;stroke-width:0.5;stroke-miterlimit:10;}
	.st2{fill:#919798;stroke:#000000;stroke-width:0.5;stroke-miterlimit:10;}
	.st3{fill:#C6C6C6;stroke:#000000;stroke-width:0.5;stroke-miterlimit:10;}
	.st4{fill:#E8E8E8;stroke:#000000;stroke-width:0.5;stroke-miterlimit:10;}
	.st5{fill:none;stroke:#000000;stroke-width:0.5;stroke-miterlimit:10;}
	.st6{fill:#333333;stroke:#000000;stroke-width:0.5;stroke-miterlimit:10;}
</style>
<g id="Wagon_Top">
	<path id="TrunkLid" class="st0" d="M230.2,76.3l25.6,2c0,0,7.4,9.9,7.4,36.1s-6.8,35.7-6.8,35.7l-25.3,7.4
		C231.1,157.5,230.2,76.3,230.2,76.3z"/>
	<path id="LeftTailLight" class="st1" d="M232.9,153.9l14.7-2.5l10.7-5c0,0,3.1,12.5-5.7,14.6c-13.4,3.2-19.1-5.2-19.1-5.2
		L232.9,153.9L232.9,153.9z"/>
	<path id="RightTailLight" class="st1" d="M233.5,73.7c0,0,5.8-8.4,19.1-5.2c8.8,2.1,5.7,14.6,5.7,14.6l-10.7-5l-14.7-2.5
		L233.5,73.7L233.5,73.7z"/>
	<path id="LeftQuarterPanel" class="st0" d="M165.4,145.7c42.5,0,67.6,1.4,67.6,1.4v4.3c0,0,13.7,0.2,15,0
		c-1.6,1.4-10.2,3.4-12.6,3.6v0.1c-6.9,1.9-30.3,6.3-30.3,6.3l-1-3.5c-0.2-0.7-0.5-1.4-0.8-2.1l-0.6-1.1c-1.2-2.3-3.6-3.7-6.2-3.8
		l-31.1-0.5"/>
	<path id="RightQuarterPanel" class="st0" d="M165.8,84.2c42.5,0,67.2-1.4,67.2-1.4v-4.3c0,0,13.7-0.2,15,0
		c-1.6-1.4-10.2-3.4-12.6-3.6v-0.1c-7-1.3-30.3-6.3-30.3-6.3l-0.8,2.9c-0.3,1.1-0.8,2.2-1.3,3.2l-0.7,1.2c-1,1.9-2.9,3.1-5,3.2
		l-9.6,0.6c-8.4,0.5-19.9,0.9-22.4,0.9"/>
	<path id="LeftHeadlight" class="st1" d="M32,140.3l-0.3,2.7c-0.6,5.1,1.8,10.1,6.1,13l0,0c4.6,3.1,10.7,3.1,15.3-0.1l3.7-2.5
		l-1.6-2.7L32,140.3L32,140.3z"/>
	<path id="RightHeadlight" class="st1" d="M55.5,79.2l1.6-2.7L53.4,74c-4.6-3.1-10.6-3.1-15.3-0.1l0,0c-4.3,2.8-6.6,7.8-6.1,13
		l0.3,2.7L55.5,79.2L55.5,79.2z"/>
	<path id="Hood" class="st0" d="M75.2,73.5l-17.5,3.1c-2.3,0.4-4.5,1.3-6.5,2.7l0,0c-0.6,0.4-1.3,0.9-2,1.2l-15.6,8
		c-0.9,0.5-1.5,1.4-1.6,2.4l-0.6,8.2c-0.9,11.7-0.8,23.4,0.2,35.1l0.4,4.4c0.1,1,0.6,1.8,1.5,2.3l19.9,10.9c0.3,0.2,0.5,0.3,0.8,0.5
		l0,0c0.7,0.6,1.6,1,2.5,1.1l18.4,2.4"/>
	<path id="Roof" class="st0" d="M232.9,147.1c0,0-40.7-1.6-56.8-1.6s-56.2,1.6-56.2,1.6V82.6c0,0,27.8,1.8,56.5,1.8
		s56.5-1.8,56.5-1.8V147.1z"/>
	<path id="Windshield" class="st2" d="M123.1,82.8c0,0-2.3,11.8-2.3,32.4s2.3,31.6,2.3,31.6l-48.9,4.5c0,0-6.5-18.1-6.5-36.7
		s6.5-36.3,6.5-36.3S123.1,82.8,123.1,82.8z"/>
	<path id="RearWindshield" class="st2" d="M236.5,79.4c0,0,3.7,0.2,7.9,1.4c4.3,1.2,7.2,4.6,7.2,4.6s7.7,9.2,7.7,27
		s-6.4,31.3-6.4,31.3s-3.9,3.6-7.3,4.5c-3.3,0.9-9.1,2.3-9.1,2.3L236.5,79.4L236.5,79.4L236.5,79.4z"/>
	<path id="RearSpoiler" class="st0" d="M232.9,78.3v73l0,0c7.1,0,13-5.5,13.4-12.6c0,0,1.5-9.6,1.5-24.3s-1.5-23.5-1.5-23.5
		C245.9,83.8,240.1,78.3,232.9,78.3L232.9,78.3z"/>
	<path id="LeftFrontStruts" class="st0" d="M165.4,150.4l-42.3,2.7l-48,2.7l-0.9-4.5l48.9-4.2l42.3-1.4"/>
	<path id="RightFrontStruts" class="st0" d="M165.3,80.7l-42.2-4.3l-47.9-2.8l-1,4.8l48.9,4.5c13,0.8,27.2,1.2,42.2,1.4"/>
</g>
<g id="Wagon_Front">
	<path id="FrontBumper" class="st0" d="M38.2,68.6c0,0,0,1-0.8,1.7c-2.2,0.3-5.2,0.3-8.2,7.2c-2.2,5,0,11.1,0,11.1l2,3l0.6,16
		c0.2,6,0.2,12-0.1,18l-0.6,11l-1,3c0,0-2,1.7-1.8,3.8c0.3,3.4,0,14.6,9.4,16.2c0,0.2,0.1,0.4,0.1,0.5c-3.3,0.7-13.3,0.3-17.7,0.5
		c-6.6,0.2-16-1.8-16-3V71.2c0,0,2.1-2.6,15-2.6C24.4,68.6,38.2,68.6,38.2,68.6L38.2,68.6z"/>
	<path id="RightFogLight" class="st3" d="M16.3,75.5l-2.8,12.1c-0.1,0.6-0.5,1.2-1.1,1.4l0,0c-0.8,0.5-1.8,0.4-2.5-0.1l0,0
		c-0.6-0.5-0.8-1.1-0.8-1.8V77.1c0-0.7,0.4-1.4,1.1-1.9l1.9-1.2c0.5-0.4,1.1-0.5,1.7-0.4l1.6,0.4C16.1,74.1,16.6,74.8,16.3,75.5z"/>
	<path id="LeftFogLight" class="st3" d="M16.2,153.2l-2.6-12.1c-0.1-0.6-0.5-1.2-1.1-1.4l0,0c-0.7-0.5-1.7-0.4-2.4,0.1l0,0
		c-0.5,0.5-0.8,1.1-0.8,1.8v10.1c0,0.7,0.4,1.4,1,1.9l1.8,1.2c0.5,0.4,1.1,0.5,1.7,0.4l1.4-0.4C15.9,154.6,16.4,153.9,16.2,153.2z"
		/>
	<path id="Grille" class="st2" d="M28.1,101.5V127c0,2.5-0.5,4.9-1.6,7.1l-1.8,4c-0.6,1.4-2.6,1.4-3.3,0l0,0
		c-0.9-1.7-1.4-3.6-1.4-5.5l-0.9-17.1v-5.8c0-5.5,0.4-10.9,1.3-16.3L21,90c0.4-1.4,3.4-1.6,3.9-0.2l1.7,4.1
		C27.7,96.4,28.2,98.9,28.1,101.5z"/>
	<path id="FrontBumperGrille" class="st3" d="M12.6,93.5v1.9c-0.4,12.8-0.4,25.6,0,38.4l0.1,2c0,0.3-0.4,0.6-0.9,0.4l-2.4-0.7
		C7.9,135.1,7,134,7,132.9V96.7c0-1.1,0.9-2.1,2.1-2.6l2.6-1C12.1,92.9,12.5,93.2,12.6,93.5z"/>
</g>
<g id="Wagon_Back">
	<path id="TrunkLid-2" class="st0" d="M269.1,70.6l-5.9,2.2v5.5l0.1,61.4l0,11.5v5.6l5.3,2l0.4,0.1l10.9-7.4l0.3-0.2l0.3-0.2h7.5
		V78.2h-7.3l-0.8-0.5l-10.7-7.2L269.1,70.6L269.1,70.6z"/>
	<path id="RearBumper" class="st0" d="M268.5,68.9h16c3.3,0,6.5,0.2,9.7,0.6l4.2,0.5l2.6,2.1v85.3l-3,2.4l-0.2,0.2
		c-0.9,0.1-1.7,0.2-2.6,0.3c-2.1,0.2-4.2,0.4-6.3,0.5c-2.5,0.1-5,0.2-7.4,0.2h-13.1c-1.8,0-3.5-0.6-4.9-1.8l-0.2-0.2v-7.9l0,0
		l11.3-1.3l7.3-1.6l0.1,0l1.5-0.3l2.7-0.6V81.9l-0.9-0.2l-4.2-0.9l-6.4-1.4h-0.1l-11.4-1.2v-8.1c0-0.1,0.1-0.2,0.2-0.2l0.5-0.2
		C265.3,69.1,267,68.9,268.5,68.9L268.5,68.9z"/>
</g>
<g id="Wagon_Side_Left">
	<path id="RearWindshield-2" class="st2" d="M229.9,157l4.2,3.6c1.6,1.4,3.1,2.8,4.6,4.3l3.1,3.3c1.9,2,3.6,4.1,5.2,6.3l1.9,2.6
		h-12.3l-11.5-16.3L229.9,157L229.9,157z"/>
	<path id="RearSpoiler-2" class="st0" d="M234.8,154.3l-11.4-1.2l-1.6,9.6l6.4-0.7l6.9-7.1C235.2,154.7,235,154.4,234.8,154.3
		L234.8,154.3z"/>
	<path id="LeftTailLight-2" class="st1" d="M225,175.2l19.6,0.4h2c2.4,0,4.3,1.9,4.5,4.2l0.1,1.5h-20.7L225,175.2L225,175.2z"/>
	<path id="LeftQuarterPanel-2" class="st0" d="M147.1,153.2l42.6,1.1l26.8,4.6c0.9,0.1,1.2,1.2,0.6,1.9l-4.2,4.5
		c-3.5,3.6-8.1,6-13.1,6.6l-2.3,0.3l-10.9,28l-6.7,17l5.9,0c-0.1-2.9,0.1-7.1,1.4-10.9l0,0c4.3-9.5,11.7-13.2,18.7-13.4
		c6.2-0.2,12.3,2.4,15,5.4c0.1,0.1,0.2,0.1,0.2,0c1.1-1,2.5-2.3,3.8-3.5c3.3-3,5.8-6.7,7.3-10.8l0.8-2.2c0-0.1,0-0.2-0.1-0.2
		l-6.7-5.3c-0.1-0.1-0.1-0.3,0.1-0.3L239,176c1,0,2,0,3-0.1l2.6-0.3l0,0c-4.3-0.9-8.8-5.4-12-8.6l-7.4-8.1l-0.2-0.4
		c-1-1.6-1.5-3.3-1.5-5.2l0,0l-0.1-0.1l-30-2.4c-4-0.3-8-0.5-12-0.5h-28.8c-1.4,0-2.9,0-4.3,0"/>
	<path id="LeftRearDoor" class="st0" d="M190.2,154.7l7,16c0.2,0.6,0.4,1.2,0.5,1.8l0.4,3.7c0,0.3,0.2,0.6,0.5,0.8
		c0.2,0.1,0.4,0.3,0.7,0.5c0.1,0,0.1,0.1,0.1,0.2c0.7,9.7-5.8,14.8-10.4,20.2c-1.4,1.6-2.5,3.5-3.3,5.4c-2.2,4.9-4.1,10.1-4.9,12.3
		c-0.2,0.6-0.8,1.1-1.5,1.1l-37,0.9l1.2-37.9l0.8-4.5l2.7-21.9c0-0.1,0.1-0.1,0.1-0.1h15.8c6.8,0,13.6,0.2,20.4,0.7l6.5,0.4
		C189.9,154.3,190.1,154.4,190.2,154.7L190.2,154.7z"/>
	<path id="LeftRearDoorWindow" class="st2" d="M149.5,175.2l40.6-3v-2.4c0-5.2-1.2-10.2-3.6-14.8l-0.5-0.9l-15.3-0.8l-20.5-0.1
		L149.5,175.2z"/>
	<path id="LeftRearWindow" class="st2" d="M190,154.4l26.6,4.7c0.7,0.1,0.9,1,0.4,1.4l-6,6.2c-2.7,2.6-6.1,4.3-9.8,4.8l-3.7,0.6
		L190,154.4z"/>
	<polygon id="LeftHeadlight-2" class="st1" points="43.3,183.7 26.5,188.7 21.9,194.4 24.1,197.2 41.4,193.3 47.2,188.7 	"/>
	<path id="FrontBumper-2" class="st0" d="M38.5,191.7l9.3,10.5c0,0-3.7,5.4-3.7,9.5s0.3,8.6,0.3,8.6s-20.4-0.4-25.2-4.6
		c0-4.6,1.1-20.5,1.3-23.1c0-0.2,0.2-0.3,0.4-0.3l2.7,0.5c0.2,0,0.4,0.3,0.4,0.5l-0.2,1.2c0,0.2,0.1,0.3,0.3,0.3l2-0.2
		c2.9-0.3,5.7-0.9,8.5-1.7C34.6,192.9,38.5,191.7,38.5,191.7z"/>
	<path id="LeftFogLight-2" class="st3" d="M35.7,208.1l0.2,0.3c0.6,0.9,0.6,2,0.3,3.1l-0.3,0.9c-0.3,1.1-1.2,1.9-2.3,2.2l-3.7,1.1
		c-0.8,0.3-1.7,0.2-2.5-0.2l-0.9-0.5c-1.2-0.6-2.2-1.9-2.2-3.3l0,0c0-1.4,0.8-2.6,2.2-3.3l4.8-2C32.9,205.9,34.8,206.5,35.7,208.1
		L35.7,208.1z"/>
	<path id="Hood-2" class="st0" d="M21.1,191.3l2.1-1.4c3.8-2.5,7.9-4.4,12.2-5.7l13.6-4.1l19.3-4.6l1.9-0.8c0.4-0.2,0.9,0,1.1,0.5
		l1.6,3.9c0.2,0.3,0,0.6-0.3,0.7l0,0c-9.9,0.4-19.7,2.4-29,5.7l-1.6,0.6l-8.2,1.5c-2.3,0.5-4.4,1.4-6.4,2.7l-3.5,2.6l-3.3-0.6
		L21.1,191.3L21.1,191.3z"/>
	<path id="RearBumper-2" class="st0" d="M243.8,181.3h7.4l0.8,6.1l0.6,5.2v1c2.1,1.8,3.4,4.8,3.4,7.6v5.7l0,0
		c-1.1,2.5-2.9,4.6-5.2,6.1l-0.2,0.1l-6.6,1.7c-2.2,0.6-4.4,1-6.7,1.2l-9.4,1v-3.4c0-5.8-2.4-11.4-6.6-15.5l0,0l1.2-1
		c4.9-4.1,8.7-9.5,10.7-15.5l0,0L243.8,181.3L243.8,181.3z"/>
	<path id="LeftFrontDoor" class="st0" d="M146.7,153.1l-3.3,27.5l-1.1,37H91.5l-0.9-6.4c-1.1-8-1.4-16.1-0.9-24.2l0.2-3.3l0.9-4.7
		l10.5-15.2l0,0c14-5.6,29.9-9.5,44.9-10.7L146.7,153.1L146.7,153.1z"/>
	<path id="LeftFrontWindow" class="st2" d="M73.2,178.4l28-14.5c0,0,0.1,0,0.1,0.1l-10.4,15l-17.4,0.6
		C72.8,179.6,72.6,178.7,73.2,178.4L73.2,178.4z"/>
	<path id="LeftFrontDoorWindow" class="st2" d="M107.5,161.8l-10.1,17l41.5-3.2l5.3-22.2l-5.9,0.6c-10.5,1-20.8,3.5-30.5,7.5
		L107.5,161.8L107.5,161.8z"/>
	<path id="LeftRearWheelRim" class="st4" d="M64.2,198.2c-8,0-14.5,6.5-14.5,14.5s6.5,14.5,14.5,14.5s14.5-6.5,14.5-14.5
		S72.2,198.2,64.2,198.2z M53.9,214.7c-0.4,0.1-0.9-0.3-0.9-0.8l0.5-4.3c0-0.5,0.6-0.8,1-0.4l3,2.4c0.4,0.3,0.3,0.9-0.1,1.1
		L53.9,214.7z M61.7,223.8l-4.2-1.7c-0.5-0.2-0.5-0.8-0.1-1.1l3.8-2.7c0.4-0.3,1,0,1,0.5l0.4,4.4C62.6,223.6,62.1,224,61.7,223.8z
		 M63.4,205.9c-0.1,0.5-0.7,0.7-1.1,0.4l-3.2-3c-0.4-0.3-0.2-1,0.3-1.1l3.8-1.1c0.5-0.1,0.9,0.3,0.8,0.7L63.4,205.9L63.4,205.9z
		 M74.3,217.1l-2.5,3.8c-0.3,0.4-0.9,0.4-1.1-0.1l-1.9-4.2c-0.2-0.5,0.2-1,0.6-0.9l4.4,0.3C74.3,216.1,74.6,216.7,74.3,217.1
		L74.3,217.1z M74.5,209.3h-4.1c-0.5,0-0.8-0.6-0.5-1l2.4-3.5c0.3-0.4,0.9-0.4,1.1,0.1l1.7,3.5C75.3,208.8,75,209.3,74.5,209.3z"/>
	<path id="LeftRearTire" class="st2" d="M64.2,194.7c-10,0-18,8.1-18,18s8.1,18,18,18s18-8.1,18-18S74.1,194.7,64.2,194.7z
		 M64.2,227.2c-8,0-14.5-6.5-14.5-14.5s6.5-14.5,14.5-14.5s14.5,6.5,14.5,14.5S72.2,227.2,64.2,227.2z"/>
	<path id="LeftFrontWheelRim" class="st4" d="M206.6,198c-8,0-14.5,6.5-14.5,14.5s6.5,14.5,14.5,14.5s14.5-6.5,14.5-14.5
		S214.6,198,206.6,198z M196.3,214.5c-0.4,0.1-0.9-0.3-0.9-0.8l0.5-4.3c0-0.5,0.6-0.8,1-0.4l3,2.4c0.4,0.3,0.3,0.9-0.1,1.1
		L196.3,214.5z M204.1,223.6l-4.2-1.7c-0.5-0.2-0.5-0.8-0.1-1.1l3.8-2.7c0.4-0.3,1,0,1,0.5l0.4,4.4
		C205,223.4,204.5,223.8,204.1,223.6z M205.8,205.7c-0.1,0.5-0.7,0.7-1.1,0.4l-3.2-3c-0.4-0.3-0.2-1,0.3-1.1l3.8-1.1
		c0.5-0.1,0.9,0.3,0.8,0.7L205.8,205.7L205.8,205.7z M216.7,216.9l-2.5,3.8c-0.3,0.4-0.9,0.4-1.1-0.1l-1.9-4.2
		c-0.2-0.5,0.2-1,0.6-0.9l4.4,0.3C216.7,215.9,217,216.5,216.7,216.9L216.7,216.9z M216.9,209.1h-4.1c-0.5,0-0.8-0.6-0.5-1l2.4-3.5
		c0.3-0.4,0.9-0.4,1.1,0.1l1.7,3.5C217.7,208.6,217.4,209.1,216.9,209.1L216.9,209.1z"/>
	<path id="LeftFrontTire" class="st2" d="M206.6,194.5c-10,0-18,8.1-18,18s8.1,18,18,18s18-8.1,18-18S216.6,194.5,206.6,194.5z
		 M206.6,227c-8,0-14.5-6.5-14.5-14.5s6.5-14.5,14.5-14.5s14.5,6.5,14.5,14.5S214.6,227,206.6,227z"/>
	<path id="LeftFrontStruts-2" class="st0" d="M148.3,150.3c0,0-35.2-0.7-78.1,24.4c1.6,2.4,2.1,3.1,2.6,3.9
		c24.9-12.9,44.9-24.1,74.3-25.4"/>
	<polygon id="LeftRockerPanels" class="st0" points="91.5,217.6 185.8,217 185.8,220.7 91.7,220 	"/>
</g>
<g id="Wagon_Side_Right">
	<path id="RearWindshield-3" class="st2" d="M224.8,70.2l11.5-16.3h12.3l-1.9,2.6c-1.6,2.2-3.3,4.3-5.2,6.3l-3.1,3.3
		c-1.5,1.5-3,2.9-4.6,4.3l-4.2,3.6L224.8,70.2z"/>
	<path id="RearSpoiler-3" class="st0" d="M234.8,76.1l-6.9-7.1l-6.4-0.7l1.6,9.6l11.4-1.2C234.7,76.6,234.9,76.3,234.8,76.1
		L234.8,76.1z"/>
	<path id="RightTailLight-2" class="st1" d="M230.2,49.7h20.7l-0.1,1.5c-0.2,2.3-2.1,4.2-4.5,4.2h-2l-19.6,0.4L230.2,49.7
		L230.2,49.7z"/>
	<path id="RightQuarterPanel-2" class="st0" d="M148,80.7c1.4,0,2.9,0,4.3,0h28.8c4,0,8-0.2,12-0.5l30-2.4l0.1-0.1l0,0
		c0-1.9,0.5-3.6,1.5-5.2l0.2-0.4l7.4-8.1c3.2-3.2,7.7-7.7,12-8.6l0,0l-2.6-0.3c-1-0.1-2-0.1-3-0.1L226,55.2c-0.2,0-0.2-0.2-0.1-0.3
		l6.7-5.3c0.1,0,0.1-0.1,0.1-0.2l-0.8-2.2c-1.5-4.1-4-7.8-7.3-10.8c-1.3-1.2-2.7-2.5-3.8-3.5c0-0.1-0.1-0.1-0.2,0
		c-2.7,3-8.8,5.6-15,5.4c-7-0.2-14.4-3.9-18.7-13.4l0,0c-1.2-3.8-1.4-8-1.4-10.9h-6.9l18.6,44.8l0.7,0.1c6.6,0.9,12.6,4.2,16.9,9.2
		l2.1,2.4c0.4,0.5,0.2,1.3-0.5,1.4l-26.9,4.8l-42.7,1.1"/>
	<path id="RightRearDoor" class="st0" d="M189.5,76.7l-6.5,0.4c-6.8,0.5-13.6,0.7-20.4,0.7h-15.8c0,0-0.1,0-0.1-0.1L144,55.8
		l-0.8-4.5L142,13.3l37,0.9c0.7,0,1.3,0.5,1.5,1.1c0.8,2.2,2.7,7.4,4.9,12.3c0.8,1.9,1.9,3.8,3.3,5.4c4.6,5.4,11.1,10.5,10.4,20.2
		c0,0.1,0,0.2-0.1,0.2c-0.3,0.2-0.5,0.4-0.7,0.5c-0.3,0.2-0.5,0.5-0.5,0.8l-0.4,3.7c-0.1,0.6-0.3,1.2-0.5,1.8l-7,16
		C189.8,76.6,189.6,76.7,189.5,76.7z"/>
	<path id="LeftRearDoorWindow-2" class="st2" d="M149.9,77.8l20.5-0.1l15.3-0.8l0.5-0.9c2.4-4.6,3.6-9.6,3.6-14.8v-2.4l-40.6-3
		L149.9,77.8L149.9,77.8z"/>
	<path id="RightRearWindow" class="st2" d="M197.2,58.8l3.7,0.6c3.7,0.5,7.1,2.2,9.8,4.8l6,6.2c0.5,0.4,0.3,1.3-0.4,1.4l-26.6,4.7
		C189.7,76.5,197.2,58.8,197.2,58.8z"/>
	<polygon id="RightHeadlight-2" class="st1" points="46.9,42.2 41.1,37.7 23.8,33.8 21.6,36.5 26.2,42.2 43,47.2 	"/>
	<path id="FrontBumper-3" class="st0" d="M34.3,38c-2.8-0.8-5.6-1.4-8.5-1.7l-2-0.2c-0.2,0-0.3,0.1-0.3,0.3l0.2,1.2
		c0,0.2-0.2,0.5-0.4,0.5l-2.7,0.5c-0.2,0-0.4-0.1-0.4-0.3c-0.2-2.6-1.3-18.5-1.3-23.1c4.8-4.2,25.2-4.6,25.2-4.6s-0.3,4.5-0.3,8.6
		s3.7,9.5,3.7,9.5l-9.3,10.5C38.2,39.2,34.3,38,34.3,38z"/>
	<path id="RightFogLight-2" class="st3" d="M30.9,24.5l-4.8-2c-1.4-0.6-2.2-1.9-2.2-3.3l0,0c0-1.4,0.9-2.6,2.2-3.3l0.9-0.5
		c0.8-0.3,1.7-0.5,2.5-0.2l3.7,1.1c1.1,0.3,2,1.1,2.3,2.2l0.3,0.9c0.3,1.1,0.3,2.2-0.3,3.1l-0.2,0.3C34.5,24.4,32.6,25.1,30.9,24.5
		L30.9,24.5z"/>
	<path id="Hood-3" class="st0" d="M20.3,38.7l3.3-0.6l3.5,2.6c2,1.3,4.1,2.2,6.4,2.7l8.2,1.5l1.6,0.6c9.3,3.3,19.1,5.3,29,5.7l0,0
		c0.3,0.1,0.5,0.4,0.3,0.7L71,55.8c-0.2,0.5-0.7,0.7-1.1,0.5L68,55.5l-19.3-4.6l-13.6-4.1c-4.3-1.3-8.4-3.2-12.2-5.7l-2.1-1.4
		C20.8,39.7,20.3,38.7,20.3,38.7z"/>
	<path id="RearBumper-3" class="st0" d="M232.9,49.3L232.9,49.3c-2-6-5.8-11.4-10.7-15.5l-1.2-1l0,0c4.2-4.1,6.6-9.7,6.6-15.5v-3.4
		l9.4,1c2.3,0.2,4.5,0.6,6.7,1.2l6.6,1.7l0.2,0.1c2.3,1.5,4.1,3.6,5.2,6.1l0,0v5.7c0,2.8-1.3,5.8-3.4,7.6v1l-0.6,5.2l-0.8,6.1h-7.4
		L232.9,49.3z"/>
	<path id="RightFrontDoor" class="st0" d="M145.9,77.8c-15-1.2-30.9-5.1-44.9-10.7l0,0L90.5,52l-0.9-4.7L89.4,44
		c-0.5-8.1-0.2-16.2,0.9-24.2l0.9-6.4H142l1.1,37l3.3,27.5H145.9L145.9,77.8z"/>
	<path id="RightFrontWindow" class="st2" d="M73.2,51.3l17.4,0.6l10.4,15c0,0.1-0.1,0.1-0.1,0.1l-28-14.5
		C72.3,52.2,72.5,51.3,73.2,51.3z"/>
	<path id="RightFrontDoorWindow" class="st2" d="M107.5,69.4c9.7,4,20,6.5,30.5,7.5l5.9,0.6l-5.3-22.2l-41.5-3.2l10.1,17
		C107.2,69.1,107.5,69.4,107.5,69.4z"/>
	<path id="RightRearWheelRim" class="st4" d="M78.4,18.2c0-8-6.5-14.5-14.5-14.5s-14.5,6.5-14.5,14.5s6.5,14.5,14.5,14.5
		S78.4,26.2,78.4,18.2z M57.1,18.2c0.4,0.2,0.5,0.8,0.1,1.1l-3,2.4c-0.4,0.4-1,0.1-1-0.4L52.7,17c0-0.5,0.5-0.9,0.9-0.8L57.1,18.2z
		 M62.3,7.8l-0.4,4.4c0,0.5-0.6,0.8-1,0.5l-3.8-2.7c-0.4-0.3-0.4-0.9,0.1-1.1l4.2-1.7C61.8,6.9,62.3,7.3,62.3,7.8z M63.7,29.1
		c0.1,0.4-0.3,0.8-0.8,0.7l-3.8-1.1c-0.5-0.1-0.7-0.8-0.3-1.1l3.2-3c0.4-0.3,1-0.1,1.1,0.4L63.7,29.1z M73.5,14.9l-4.4,0.3
		c-0.4,0.1-0.8-0.4-0.6-0.9l1.9-4.2c0.2-0.5,0.8-0.5,1.1-0.1l2.5,3.8C74.3,14.2,74,14.9,73.5,14.9z M74.8,22.5L73.1,26
		c-0.2,0.5-0.8,0.5-1.1,0.1l-2.4-3.5c-0.3-0.4,0-1,0.5-1h4.1C74.7,21.6,75,22.1,74.8,22.5z"/>
	<path id="RightRearTire" class="st2" d="M81.9,18.2c0-9.9-8-18-18-18s-18,8-18,18s8,18,18,18S81.9,28.2,81.9,18.2z M78.4,18.2
		c0,8-6.5,14.5-14.5,14.5s-14.5-6.5-14.5-14.5S55.9,3.8,63.9,3.8S78.4,10.2,78.4,18.2z"/>
	<path id="RightFrontWheelRim" class="st4" d="M220.8,18.5c0-8-6.5-14.5-14.5-14.5s-14.5,6.5-14.5,14.5S198.3,33,206.3,33
		S220.8,26.5,220.8,18.5z M199.5,18.5c0.4,0.2,0.5,0.8,0.1,1.1l-3,2.4c-0.4,0.4-1,0.1-1-0.4l-0.5-4.3c0-0.5,0.5-0.9,0.9-0.8
		L199.5,18.5z M204.7,8l-0.4,4.4c0,0.5-0.6,0.8-1,0.5l-3.8-2.7c-0.4-0.3-0.4-0.9,0.1-1.1l4.2-1.7C204.2,7.2,204.7,7.6,204.7,8z
		 M206.1,29.4c0.1,0.4-0.3,0.8-0.8,0.7l-3.8-1.1c-0.5-0.1-0.7-0.8-0.3-1.1l3.2-3c0.4-0.3,1-0.1,1.1,0.4L206.1,29.4z M215.9,15.2
		l-4.4,0.3c-0.4,0.1-0.8-0.4-0.6-0.9l1.9-4.2c0.2-0.5,0.8-0.5,1.1-0.1l2.5,3.8C216.7,14.5,216.4,15.1,215.9,15.2z M217.2,22.8
		l-1.7,3.5c-0.2,0.5-0.8,0.5-1.1,0.1l-2.4-3.5c-0.3-0.4,0-1,0.5-1h4.1C217.1,21.9,217.4,22.4,217.2,22.8L217.2,22.8z"/>
	<path id="RightFrontTire" class="st2" d="M224.3,18.5c0-9.9-8-18-18-18s-18,8-18,18s8,18,18,18S224.3,28.5,224.3,18.5z M220.8,18.5
		c0,8-6.5,14.5-14.5,14.5s-14.5-6.5-14.5-14.5S198.3,4,206.3,4S220.8,10.5,220.8,18.5z"/>
	<path id="RightFrontStruts-2" class="st0" d="M148,80.7c0,0-35.2,0.7-78.1-24.4c1.6-2.4,2.1-3.1,2.6-3.9
		c24.9,12.9,44.9,24.1,74.3,25.4"/>
	<polygon id="RightRockerPanels" class="st0" points="91.4,10.9 185.5,10.2 185.5,13.9 91.2,13.4 	"/>
</g>
<g id="lines">
	<line id="line" class="st5" x1="226.2" y1="55.2" x2="198.2" y2="54"/>
	<line id="line-2" class="st5" x1="143.1" y1="51.2" x2="198.2" y2="54"/>
	<line id="line-3" class="st5" x1="143.8" y1="55.3" x2="197.2" y2="58.8"/>
	<path id="line-4" class="st0" d="M252.5,26.4L252.5,26.4c-4.1,5.9-7,12.5-8.6,19.6l-0.9,3.6"/>
	<line id="line-5" class="st5" x1="247.4" y1="35.5" x2="252.3" y2="37.5"/>
	<line id="line-6" class="st5" x1="89.7" y1="48" x2="143.1" y2="51.2"/>
	<polyline id="line-7" class="st2" points="90.6,52 96.7,52.2 137.8,54.8 143.5,55.3 	"/>
	<path id="line-8" class="st0" d="M64.7,37.3c-12.5,0.2-17.3-8.7-17.3-8.7l-9.3,10.5l2.7,1.7c0.9,0.6,1.7,1.4,2.2,2.4l0.5,1
		c0.1,0.1,0,0.4-0.2,0.4l-1.8,0.4l0,0c7.6,3.2,15.5,4.7,23.9,5.8c0,0,3.6,0.3,5,0.4c6.1,0.3,19.4,0.7,19.4,0.7
		c0.3,0,0.6-0.3,0.5-0.6L89.7,48l0,0c-0.3-10,0-20,1-30l0.7-7h-6.6c0,0,0,9.9-1.4,12.8C83.4,23.8,78.1,37.3,64.7,37.3z"/>
	<path id="line-9" class="st5" d="M42.3,42.2L42.3,42.2c3.8,1.4,7.8,2.4,11.8,2.7l35.6,3"/>
	<path id="line-10" d="M180.1,50.8c-0.7,0.1-0.7,1.1,0,1c3.5-0.4,7.1-0.4,10.7,0c0.6,0.1,0.6-0.9,0-1
		C187.3,50.3,183.7,50.3,180.1,50.8L180.1,50.8z"/>
	<path id="line-11" d="M126.3,47.2c-0.6,0.1-0.6,1.1,0,1c3.5-0.4,7.1-0.4,10.7,0c0.6,0.1,0.6-0.9,0-1
		C133.5,46.8,129.9,46.8,126.3,47.2L126.3,47.2z"/>
	<polyline id="line-12" class="st2" points="143.8,175.6 138.1,176.1 97,178.8 90.9,179 	"/>
	<path id="line-13" class="st0" d="M83.7,207.2c1.4,2.9,1.4,12.8,1.4,12.8h6.6l-0.7-7c-1-10-1.3-20-1-30l0,0l0.6-3.4
		c0.1-0.3-0.2-0.6-0.5-0.6c0,0-13.3,0.4-19.4,0.7c-1.4,0.1-5,0.4-5,0.4c-8.4,1.1-16.3,2.6-23.9,5.8l0,0l1.8,0.4
		c0.2,0,0.3,0.3,0.2,0.4l-0.5,1c-0.5,1-1.3,1.8-2.2,2.4l-2.7,1.7l9.3,10.5c0,0,4.8-8.9,17.3-8.7C78.4,193.7,83.7,207.2,83.7,207.2
		L83.7,207.2z"/>
	<path id="line-14" class="st5" d="M90,183l-35.6,3c-4,0.3-8,1.3-11.8,2.7l0,0"/>
	<line id="line-15" class="st5" x1="198.5" y1="177" x2="226.5" y2="175.7"/>
	<line id="line-16" class="st5" x1="198.5" y1="177" x2="143.4" y2="179.7"/>
	<line id="line-17" class="st5" x1="197.5" y1="172.2" x2="144.1" y2="175.6"/>
	<path id="line-18" class="st0" d="M243.3,181.4l0.9,3.6c1.6,7.1,4.5,13.7,8.6,19.6l0,0"/>
	<line id="line-19" class="st5" x1="252.6" y1="193.4" x2="247.7" y2="195.5"/>
	<line id="line-20" class="st5" x1="143.4" y1="179.7" x2="90" y2="183"/>
	<path id="line-21" d="M180.4,180.2c3.6,0.4,7.2,0.4,10.7,0c0.6-0.1,0.6-1.1,0-1c-3.6,0.4-7.2,0.4-10.7,0
		C179.7,179.1,179.7,180.1,180.4,180.2L180.4,180.2z"/>
	<path id="line-22" d="M126.6,183.7c3.6,0.4,7.2,0.4,10.7,0c0.6-0.1,0.6-1.1,0-1c-3.6,0.4-7.2,0.4-10.7,0
		C126,182.6,126,183.6,126.6,183.7C126.6,183.7,126.6,183.7,126.6,183.7z"/>
	<path id="line-23" class="st5" d="M263.9,93.7l6.5,4.2c1.1,0.7,1.8,2,1.8,3.3v26.4c0,1.3-0.6,2.5-1.7,3.3l-6.6,4.6l0.1-0.4V94.2
		L263.9,93.7L263.9,93.7z"/>
	<path id="line-24" class="st5" d="M268.5,68.9l0.6,1.6l0,0.1l1.4,1c1.3,0.9,2.3,2.1,3,3.5c0.7,1.3,1.1,2.8,1.1,4.3v0.1l0.6,35.4
		l-0.6,34.9v0.2c-0.2,1.9-0.9,3.6-1.9,5.1c-1,1.5-2.4,2.8-4.1,3.6v0.1l-0.3,2.1c11.4,0.2,21.6,0.3,29.8-1.1l3-2.4v-7.6l-7-4.6
		l-1.3-1.2c-0.8-0.8-0.7-1.8-0.7-2.9v-1.7c0-1.5,0.2-3,1.6-3.7l0,0V94.2l-0.4-0.3c-1.1-0.8-1.2-2.1-1.2-3.4v-2.7
		c0-1.6,0.4-3,1.9-3.7l0.4-0.2l6.7-3.2"/>
	<path id="line-25" d="M292.7,140.3c0,2.4,1.1,4.3,2.4,4.3s2.4-1.9,2.4-4.3s-1.1-4.3-2.4-4.3S292.7,137.9,292.7,140.3z"/>
	<path id="line-26" d="M292.7,88.9c0,2.4,1.1,4.3,2.4,4.3s2.4-1.9,2.4-4.3s-1.1-4.3-2.4-4.3S292.7,86.5,292.7,88.9z"/>
	<rect id="line-27" x="288.6" y="146.1" class="st0" width="2.1" height="9.6"/>
	<rect id="line-28" x="288.5" y="73.5" class="st0" width="2.1" height="9.6"/>
	<polygon id="line-29" class="st6" points="2.5,79.2 0.2,90.6 0.2,138.2 2.5,149.9 4.1,149.9 4.1,79.2 	"/>
	<path id="line-30" class="st5" d="M74.2,151.3c0,0-19.2-0.9-42.3-15.6"/>
	<path id="line-31" class="st5" d="M74.2,78.3c0,0-15.6,1.1-42.2,15.1"/>
</g>
	<g id="markers-container"></g>
</svg>
